{
 "asset": {
  "version": "2.0",
  "generator": "cargame defender_to_gltf.py"
 },
 "scene": 0,
 "scenes": [
  {
   "nodes": [
    0
   ]
  }
 ],
 "nodes": [
  {
   "name": "body",
   "mesh": 0
  }
 ],
 "meshes": [
  {
   "name": "body",
   "primitives": [
    {
     "attributes": {
      "POSITION": 0,
      "NORMAL": 1,
      "TEXCOORD_0": 2
     },
     "indices": 3,
     "material": 0
    },
    {
     "attributes": {
      "POSITION": 4,
      "NORMAL": 5,
      "TEXCOORD_0": 6
     },
     "indices": 7,
     "material": 1
    },
    {
     "attributes": {
      "POSITION": 8,
      "NORMAL": 9,
      "TEXCOORD_0": 10
     },
     "indices": 11,
     "material": 2
    },
    {
     "attributes": {
      "POSITION": 12,
      "NORMAL": 13,
      "TEXCOORD_0": 14
     },
     "indices": 15,
     "material": 3
    },
    {
     "attributes": {
      "POSITION": 16,
      "NORMAL": 17,
      "TEXCOORD_0": 18
     },
     "indices": 19,
     "material": 4
    },
    {
     "attributes": {
      "POSITION": 20,
      "NORMAL": 21,
      "TEXCOORD_0": 22
     },
     "indices": 23,
     "material": 5
    },
    {
     "attributes": {
      "POSITION": 24,
      "NORMAL": 25,
      "TEXCOORD_0": 26
     },
     "indices": 27,
     "material": 6
    },
    {
     "attributes": {
      "POSITION": 28,
      "NORMAL": 29,
      "TEXCOORD_0": 30
     },
     "indices": 31,
     "material": 7
    },
    {
     "attributes": {
      "POSITION": 32,
      "NORMAL": 33,
      "TEXCOORD_0": 34
     },
     "indices": 35,
     "material": 8
    },
    {
     "attributes": {
      "POSITION": 36,
      "NORMAL": 37,
      "TEXCOORD_0": 38
     },
     "indices": 39,
     "material": 9
    },
    {
     "attributes": {
      "POSITION": 40,
      "NORMAL": 41,
      "TEXCOORD_0": 42
     },
     "indices": 43,
     "material": 10
    },
    {
     "attributes": {
      "POSITION": 44,
      "NORMAL": 45,
      "TEXCOORD_0": 46
     },
     "indices": 47,
     "material": 11
    },
    {
     "attributes": {
      "POSITION": 48,
      "NORMAL": 49,
      "TEXCOORD_0": 50
     },
     "indices": 51,
     "material": 12
    },
    {
     "attributes": {
      "POSITION": 52,
      "NORMAL": 53,
      "TEXCOORD_0": 54
     },
     "indices": 55,
     "material": 13
    },
    {
     "attributes": {
      "POSITION": 56,
      "NORMAL": 57,
      "TEXCOORD_0": 58
     },
     "indices": 59,
     "material": 14
    },
    {
     "attributes": {
      "POSITION": 60,
      "NORMAL": 61,
      "TEXCOORD_0": 62
     },
     "indices": 63,
     "material": 15
    },
    {
     "attributes": {
      "POSITION": 64,
      "NORMAL": 65,
      "TEXCOORD_0": 66
     },
     "indices": 67,
     "material": 16
    },
    {
     "attributes": {
      "POSITION": 68,
      "NORMAL": 69,
      "TEXCOORD_0": 70
     },
     "indices": 71,
     "material": 17
    },
    {
     "attributes": {
      "POSITION": 72,
      "NORMAL": 73,
      "TEXCOORD_0": 74
     },
     "indices": 75,
     "material": 18
    },
    {
     "attributes": {
      "POSITION": 76,
      "NORMAL": 77,
      "TEXCOORD_0": 78
     },
     "indices": 79,
     "material": 19
    },
    {
     "attributes": {
      "POSITION": 80,
      "NORMAL": 81,
      "TEXCOORD_0": 82
     },
     "indices": 83,
     "material": 20
    },
    {
     "attributes": {
      "POSITION": 84,
      "NORMAL": 85,
      "TEXCOORD_0": 86
     },
     "indices": 87,
     "material": 21
    },
    {
     "attributes": {
      "POSITION": 88,
      "NORMAL": 89,
      "TEXCOORD_0": 90
     },
     "indices": 91,
     "material": 22
    },
    {
     "attributes": {
      "POSITION": 92,
      "NORMAL": 93,
      "TEXCOORD_0": 94
     },
     "indices": 95,
     "material": 23
    },
    {
     "attributes": {
      "POSITION": 96,
      "NORMAL": 97,
      "TEXCOORD_0": 98
     },
     "indices": 99,
     "material": 24
    },
    {
     "attributes": {
      "POSITION": 100,
      "NORMAL": 101,
      "TEXCOORD_0": 102
     },
     "indices": 103,
     "material": 25
    },
    {
     "attributes": {
      "POSITION": 104,
      "NORMAL": 105,
      "TEXCOORD_0": 106
     },
     "indices": 107,
     "material": 26
    },
    {
     "attributes": {
      "POSITION": 108,
      "NORMAL": 109,
      "TEXCOORD_0": 110
     },
     "indices": 111,
     "material": 27
    },
    {
     "attributes": {
      "POSITION": 112,
      "NORMAL": 113,
      "TEXCOORD_0": 114
     },
     "indices": 115,
     "material": 28
    },
    {
     "attributes": {
      "POSITION": 116,
      "NORMAL": 117,
      "TEXCOORD_0": 118
     },
     "indices": 119,
     "material": 29
    },
    {
     "attributes": {
      "POSITION": 120,
      "NORMAL": 121,
      "TEXCOORD_0": 122
     },
     "indices": 123,
     "material": 30
    },
    {
     "attributes": {
      "POSITION": 124,
      "NORMAL": 125,
      "TEXCOORD_0": 126
     },
     "indices": 127,
     "material": 31
    },
    {
     "attributes": {
      "POSITION": 128,
      "NORMAL": 129,
      "TEXCOORD_0": 130
     },
     "indices": 131,
     "material": 32
    },
    {
     "attributes": {
      "POSITION": 132,
      "NORMAL": 133,
      "TEXCOORD_0": 134
     },
     "indices": 135,
     "material": 33
    },
    {
     "attributes": {
      "POSITION": 136,
      "NORMAL": 137,
      "TEXCOORD_0": 138
     },
     "indices": 139,
     "material": 34
    },
    {
     "attributes": {
      "POSITION": 140,
      "NORMAL": 141,
      "TEXCOORD_0": 142
     },
     "indices": 143,
     "material": 35
    },
    {
     "attributes": {
      "POSITION": 144,
      "NORMAL": 145,
      "TEXCOORD_0": 146
     },
     "indices": 147,
     "material": 36
    },
    {
     "attributes": {
      "POSITION": 148,
      "NORMAL": 149,
      "TEXCOORD_0": 150
     },
     "indices": 151,
     "material": 37
    },
    {
     "attributes": {
      "POSITION": 152,
      "NORMAL": 153,
      "TEXCOORD_0": 154
     },
     "indices": 155,
     "material": 38
    },
    {
     "attributes": {
      "POSITION": 156,
      "NORMAL": 157,
      "TEXCOORD_0": 158
     },
     "indices": 159,
     "material": 39
    },
    {
     "attributes": {
      "POSITION": 160,
      "NORMAL": 161,
      "TEXCOORD_0": 162
     },
     "indices": 163,
     "material": 40
    },
    {
     "attributes": {
      "POSITION": 164,
      "NORMAL": 165,
      "TEXCOORD_0": 166
     },
     "indices": 167,
     "material": 41
    },
    {
     "attributes": {
      "POSITION": 168,
      "NORMAL": 169,
      "TEXCOORD_0": 170
     },
     "indices": 171,
     "material": 42
    },
    {
     "attributes": {
      "POSITION": 172,
      "NORMAL": 173,
      "TEXCOORD_0": 174
     },
     "indices": 175,
     "material": 43
    },
    {
     "attributes": {
      "POSITION": 176,
      "NORMAL": 177,
      "TEXCOORD_0": 178
     },
     "indices": 179,
     "material": 44
    },
    {
     "attributes": {
      "POSITION": 180,
      "NORMAL": 181,
      "TEXCOORD_0": 182
     },
     "indices": 183,
     "material": 45
    },
    {
     "attributes": {
      "POSITION": 184,
      "NORMAL": 185,
      "TEXCOORD_0": 186
     },
     "indices": 187,
     "material": 46
    },
    {
     "attributes": {
      "POSITION": 188,
      "NORMAL": 189,
      "TEXCOORD_0": 190
     },
     "indices": 191,
     "material": 47
    },
    {
     "attributes": {
      "POSITION": 192,
      "NORMAL": 193,
      "TEXCOORD_0": 194
     },
     "indices": 195,
     "material": 48
    },
    {
     "attributes": {
      "POSITION": 196,
      "NORMAL": 197,
      "TEXCOORD_0": 198
     },
     "indices": 199,
     "material": 49
    },
    {
     "attributes": {
      "POSITION": 200,
      "NORMAL": 201,
      "TEXCOORD_0": 202
     },
     "indices": 203,
     "material": 50
    },
    {
     "attributes": {
      "POSITION": 204,
      "NORMAL": 205,
      "TEXCOORD_0": 206
     },
     "indices": 207,
     "material": 51
    },
    {
     "attributes": {
      "POSITION": 208,
      "NORMAL": 209,
      "TEXCOORD_0": 210
     },
     "indices": 211,
     "material": 52
    },
    {
     "attributes": {
      "POSITION": 212,
      "NORMAL": 213,
      "TEXCOORD_0": 214
     },
     "indices": 215,
     "material": 53
    },
    {
     "attributes": {
      "POSITION": 216,
      "NORMAL": 217,
      "TEXCOORD_0": 218
     },
     "indices": 219,
     "material": 54
    },
    {
     "attributes": {
      "POSITION": 220,
      "NORMAL": 221,
      "TEXCOORD_0": 222
     },
     "indices": 223,
     "material": 55
    },
    {
     "attributes": {
      "POSITION": 224,
      "NORMAL": 225,
      "TEXCOORD_0": 226
     },
     "indices": 227,
     "material": 56
    },
    {
     "attributes": {
      "POSITION": 228,
      "NORMAL": 229,
      "TEXCOORD_0": 230
     },
     "indices": 231,
     "material": 57
    },
    {
     "attributes": {
      "POSITION": 232,
      "NORMAL": 233,
      "TEXCOORD_0": 234
     },
     "indices": 235,
     "material": 58
    },
    {
     "attributes": {
      "POSITION": 236,
      "NORMAL": 237,
      "TEXCOORD_0": 238
     },
     "indices": 239,
     "material": 59
    },
    {
     "attributes": {
      "POSITION": 240,
      "NORMAL": 241,
      "TEXCOORD_0": 242
     },
     "indices": 243,
     "material": 60
    },
    {
     "attributes": {
      "POSITION": 244,
      "NORMAL": 245,
      "TEXCOORD_0": 246
     },
     "indices": 247,
     "material": 61
    },
    {
     "attributes": {
      "POSITION": 248,
      "NORMAL": 249,
      "TEXCOORD_0": 250
     },
     "indices": 251,
     "material": 62
    },
    {
     "attributes": {
      "POSITION": 252,
      "NORMAL": 253,
      "TEXCOORD_0": 254
     },
     "indices": 255,
     "material": 63
    },
    {
     "attributes": {
      "POSITION": 256,
      "NORMAL": 257,
      "TEXCOORD_0": 258
     },
     "indices": 259,
     "material": 64
    },
    {
     "attributes": {
      "POSITION": 260,
      "NORMAL": 261,
      "TEXCOORD_0": 262
     },
     "indices": 263,
     "material": 65
    },
    {
     "attributes": {
      "POSITION": 264,
      "NORMAL": 265,
      "TEXCOORD_0": 266
     },
     "indices": 267,
     "material": 66
    },
    {
     "attributes": {
      "POSITION": 268,
      "NORMAL": 269,
      "TEXCOORD_0": 270
     },
     "indices": 271,
     "material": 67
    },
    {
     "attributes": {
      "POSITION": 272,
      "NORMAL": 273,
      "TEXCOORD_0": 274
     },
     "indices": 275,
     "material": 68
    }
   ]
  }
 ],
 "materials": [
  {
   "name": "Material #1959",
   "pbrMetallicRoughness": {
    "baseColorFactor": [
     0.16,
     0.22,
     0.17,
     1.0
    ],
    "metallicFactor": 0.35,
    "roughnessFactor": 0.34
   },
   "doubleSided": false
  },
  {
   "name": "body_mat",
   "pbrMetallicRoughness": {
    "baseColorFactor": [
     0.13,
     0.135,
     0.14,
     1.0
    ],
    "metallicFactor": 0.6,
    "roughnessFactor": 0.45
   },
   "doubleSided": false
  },
  {
   "name": "Material #2004",
   "pbrMetallicRoughness": {
    "baseColorFactor": [
     0.16,
     0.22,
     0.17,
     1.0
    ],
    "metallicFactor": 0.35,
    "roughnessFactor": 0.34
   },
   "doubleSided": false
  },
  {
   "name": "Material #1997",
   "pbrMetallicRoughness": {
    "baseColorFactor": [
     0.16,
     0.22,
     0.17,
     1.0
    ],
    "metallicFactor": 0.35,
    "roughnessFactor": 0.34
   },
   "doubleSided": false
  },
  {
   "name": "Material #2021",
   "pbrMetallicRoughness": {
    "baseColorFactor": [
     0.13,
     0.135,
     0.14,
     1.0
    ],
    "metallicFactor": 0.6,
    "roughnessFactor": 0.45
   },
   "doubleSided": false
  },
  {
   "name": "Material #2016",
   "pbrMetallicRoughness": {
    "baseColorFactor": [
     0.13,
     0.16,
     0.19,
     0.42
    ],
    "metallicFactor": 0.0,
    "roughnessFactor": 0.05
   },
   "doubleSided": false,
   "alphaMode": "BLEND"
  },
  {
   "name": "Material #1958",
   "pbrMetallicRoughness": {
    "baseColorFactor": [
     0.13,
     0.135,
     0.14,
     1.0
    ],
    "metallicFactor": 0.6,
    "roughnessFactor": 0.45
   },
   "doubleSided": false
  },
  {
   "name": "Material #1975",
   "pbrMetallicRoughness": {
    "baseColorFactor": [
     0.13,
     0.16,
     0.19,
     0.42
    ],
    "metallicFactor": 0.0,
    "roughnessFactor": 0.05
   },
   "doubleSided": false,
   "alphaMode": "BLEND"
  },
  {
   "name": "Material #1979",
   "pbrMetallicRoughness": {
    "baseColorFactor": [
     0.13,
     0.135,
     0.14,
     1.0
    ],
    "metallicFactor": 0.6,
    "roughnessFactor": 0.45
   },
   "doubleSided": false
  },
  {
   "name": "Material #1968",
   "pbrMetallicRoughness": {
    "baseColorFactor": [
     0.16,
     0.22,
     0.17,
     1.0
    ],
    "metallicFactor": 0.3,
    "roughnessFactor": 0.45
   },
   "doubleSided": false
  },
  {
   "name": "Material #1981",
   "pbrMetallicRoughness": {
    "baseColorFactor": [
     0.16,
     0.22,
     0.17,
     1.0
    ],
    "metallicFactor": 0.3,
    "roughnessFactor": 0.45
   },
   "doubleSided": false
  },
  {
   "name": "Material #1998",
   "pbrMetallicRoughness": {
    "baseColorFactor": [
     0.16,
     0.22,
     0.17,
     1.0
    ],
    "metallicFactor": 0.3,
    "roughnessFactor": 0.45
   },
   "doubleSided": false
  },
  {
   "name": "Material #1980",
   "pbrMetallicRoughness": {
    "baseColorFactor": [
     0.13,
     0.135,
     0.14,
     1.0
    ],
    "metallicFactor": 0.6,
    "roughnessFactor": 0.45
   },
   "doubleSided": false
  },
  {
   "name": "Material #1989",
   "pbrMetallicRoughness": {
    "baseColorFactor": [
     0.16,
     0.22,
     0.17,
     1.0
    ],
    "metallicFactor": 0.3,
    "roughnessFactor": 0.45
   },
   "doubleSided": false
  },
  {
   "name": "Material #1967",
   "pbrMetallicRoughness": {
    "baseColorFactor": [
     0.13,
     0.16,
     0.19,
     0.42
    ],
    "metallicFactor": 0.0,
    "roughnessFactor": 0.05
   },
   "doubleSided": false,
   "alphaMode": "BLEND"
  },
  {
   "name": "Material #1966",
   "pbrMetallicRoughness": {
    "baseColorFactor": [
     0.13,
     0.135,
     0.14,
     1.0
    ],
    "metallicFactor": 0.6,
    "roughnessFactor": 0.45
   },
   "doubleSided": false
  },
  {
   "name": "Material #2015",
   "pbrMetallicRoughness": {
    "baseColorFactor": [
     0.075,
     0.075,
     0.08,
     1.0
    ],
    "metallicFactor": 0.55,
    "roughnessFactor": 0.72
   },
   "doubleSided": false
  },
  {
   "name": "Material #1971",
   "pbrMetallicRoughness": {
    "baseColorFactor": [
     0.13,
     0.135,
     0.14,
     1.0
    ],
    "metallicFactor": 0.6,
    "roughnessFactor": 0.45
   },
   "doubleSided": false
  },
  {
   "name": "Material #1961",
   "pbrMetallicRoughness": {
    "baseColorFactor": [
     0.075,
     0.075,
     0.08,
     1.0
    ],
    "metallicFactor": 0.55,
    "roughnessFactor": 0.72
   },
   "doubleSided": false
  },
  {
   "name": "Material #1991",
   "pbrMetallicRoughness": {
    "baseColorFactor": [
     0.16,
     0.22,
     0.17,
     1.0
    ],
    "metallicFactor": 0.3,
    "roughnessFactor": 0.45
   },
   "doubleSided": false
  },
  {
   "name": "Material #2026",
   "pbrMetallicRoughness": {
    "baseColorFactor": [
     0.16,
     0.22,
     0.17,
     1.0
    ],
    "metallicFactor": 0.3,
    "roughnessFactor": 0.45
   },
   "doubleSided": false
  },
  {
   "name": "Material #2002",
   "pbrMetallicRoughness": {
    "baseColorFactor": [
     0.13,
     0.16,
     0.19,
     0.42
    ],
    "metallicFactor": 0.0,
    "roughnessFactor": 0.05
   },
   "doubleSided": false,
   "alphaMode": "BLEND"
  },
  {
   "name": "Material #2010",
   "pbrMetallicRoughness": {
    "baseColorFactor": [
     0.13,
     0.135,
     0.14,
     1.0
    ],
    "metallicFactor": 0.6,
    "roughnessFactor": 0.45
   },
   "doubleSided": false
  },
  {
   "name": "Material #1987",
   "pbrMetallicRoughness": {
    "baseColorFactor": [
     0.16,
     0.22,
     0.17,
     1.0
    ],
    "metallicFactor": 0.3,
    "roughnessFactor": 0.45
   },
   "doubleSided": false
  },
  {
   "name": "Material #1976",
   "pbrMetallicRoughness": {
    "baseColorFactor": [
     0.13,
     0.135,
     0.14,
     1.0
    ],
    "metallicFactor": 0.6,
    "roughnessFactor": 0.45
   },
   "doubleSided": false
  },
  {
   "name": "Material #1965",
   "pbrMetallicRoughness": {
    "baseColorFactor": [
     0.13,
     0.135,
     0.14,
     1.0
    ],
    "metallicFactor": 0.6,
    "roughnessFactor": 0.45
   },
   "doubleSided": false
  },
  {
   "name": "Material #2023",
   "pbrMetallicRoughness": {
    "baseColorFactor": [
     0.13,
     0.135,
     0.14,
     1.0
    ],
    "metallicFactor": 0.6,
    "roughnessFactor": 0.45
   },
   "doubleSided": false
  },
  {
   "name": "Material #2006",
   "pbrMetallicRoughness": {
    "baseColorFactor": [
     0.075,
     0.075,
     0.08,
     1.0
    ],
    "metallicFactor": 0.55,
    "roughnessFactor": 0.72
   },
   "doubleSided": false
  },
  {
   "name": "Material #2019",
   "pbrMetallicRoughness": {
    "baseColorFactor": [
     0.13,
     0.135,
     0.14,
     1.0
    ],
    "metallicFactor": 0.6,
    "roughnessFactor": 0.45
   },
   "doubleSided": false
  },
  {
   "name": "Material #1970",
   "pbrMetallicRoughness": {
    "baseColorFactor": [
     0.16,
     0.22,
     0.17,
     1.0
    ],
    "metallicFactor": 0.3,
    "roughnessFactor": 0.45
   },
   "doubleSided": false
  },
  {
   "name": "Material #1960",
   "pbrMetallicRoughness": {
    "baseColorFactor": [
     0.075,
     0.075,
     0.08,
     1.0
    ],
    "metallicFactor": 0.55,
    "roughnessFactor": 0.72
   },
   "doubleSided": false
  },
  {
   "name": "Material #1988",
   "pbrMetallicRoughness": {
    "baseColorFactor": [
     0.16,
     0.22,
     0.17,
     1.0
    ],
    "metallicFactor": 0.3,
    "roughnessFactor": 0.45
   },
   "doubleSided": false
  },
  {
   "name": "Material #1982",
   "pbrMetallicRoughness": {
    "baseColorFactor": [
     0.13,
     0.135,
     0.14,
     1.0
    ],
    "metallicFactor": 0.6,
    "roughnessFactor": 0.45
   },
   "doubleSided": false
  },
  {
   "name": "Material #1984",
   "pbrMetallicRoughness": {
    "baseColorFactor": [
     0.13,
     0.135,
     0.14,
     1.0
    ],
    "metallicFactor": 0.6,
    "roughnessFactor": 0.45
   },
   "doubleSided": false
  },
  {
   "name": "Material #1983",
   "pbrMetallicRoughness": {
    "baseColorFactor": [
     0.13,
     0.135,
     0.14,
     1.0
    ],
    "metallicFactor": 0.6,
    "roughnessFactor": 0.45
   },
   "doubleSided": false
  },
  {
   "name": "Material #1969",
   "pbrMetallicRoughness": {
    "baseColorFactor": [
     0.13,
     0.16,
     0.19,
     0.42
    ],
    "metallicFactor": 0.0,
    "roughnessFactor": 0.05
   },
   "doubleSided": false,
   "alphaMode": "BLEND"
  },
  {
   "name": "Material #1974",
   "pbrMetallicRoughness": {
    "baseColorFactor": [
     0.13,
     0.135,
     0.14,
     1.0
    ],
    "metallicFactor": 0.6,
    "roughnessFactor": 0.45
   },
   "doubleSided": false
  },
  {
   "name": "Material #1962",
   "pbrMetallicRoughness": {
    "baseColorFactor": [
     0.13,
     0.135,
     0.14,
     1.0
    ],
    "metallicFactor": 0.6,
    "roughnessFactor": 0.45
   },
   "doubleSided": false
  },
  {
   "name": "Material #2014.001",
   "pbrMetallicRoughness": {
    "baseColorFactor": [
     0.075,
     0.075,
     0.08,
     1.0
    ],
    "metallicFactor": 0.55,
    "roughnessFactor": 0.72
   },
   "doubleSided": false
  },
  {
   "name": "Material #2014",
   "pbrMetallicRoughness": {
    "baseColorFactor": [
     0.075,
     0.075,
     0.08,
     1.0
    ],
    "metallicFactor": 0.55,
    "roughnessFactor": 0.72
   },
   "doubleSided": false
  },
  {
   "name": "Material #1986",
   "pbrMetallicRoughness": {
    "baseColorFactor": [
     0.13,
     0.16,
     0.19,
     0.42
    ],
    "metallicFactor": 0.0,
    "roughnessFactor": 0.05
   },
   "doubleSided": false,
   "alphaMode": "BLEND"
  },
  {
   "name": "Material #1994",
   "pbrMetallicRoughness": {
    "baseColorFactor": [
     0.16,
     0.22,
     0.17,
     1.0
    ],
    "metallicFactor": 0.3,
    "roughnessFactor": 0.45
   },
   "doubleSided": false
  },
  {
   "name": "Material #2013",
   "pbrMetallicRoughness": {
    "baseColorFactor": [
     0.075,
     0.075,
     0.08,
     1.0
    ],
    "metallicFactor": 0.55,
    "roughnessFactor": 0.72
   },
   "doubleSided": false
  },
  {
   "name": "Material #2005",
   "pbrMetallicRoughness": {
    "baseColorFactor": [
     0.13,
     0.135,
     0.14,
     1.0
    ],
    "metallicFactor": 0.6,
    "roughnessFactor": 0.45
   },
   "doubleSided": false
  },
  {
   "name": "Material #2008",
   "pbrMetallicRoughness": {
    "baseColorFactor": [
     0.13,
     0.135,
     0.14,
     1.0
    ],
    "metallicFactor": 0.6,
    "roughnessFactor": 0.45
   },
   "doubleSided": false
  },
  {
   "name": "Material #2003",
   "pbrMetallicRoughness": {
    "baseColorFactor": [
     0.13,
     0.16,
     0.19,
     0.42
    ],
    "metallicFactor": 0.0,
    "roughnessFactor": 0.05
   },
   "doubleSided": false,
   "alphaMode": "BLEND"
  },
  {
   "name": "Material #1999",
   "pbrMetallicRoughness": {
    "baseColorFactor": [
     0.13,
     0.16,
     0.19,
     0.42
    ],
    "metallicFactor": 0.0,
    "roughnessFactor": 0.05
   },
   "doubleSided": false,
   "alphaMode": "BLEND"
  },
  {
   "name": "Material #2022",
   "pbrMetallicRoughness": {
    "baseColorFactor": [
     0.13,
     0.135,
     0.14,
     1.0
    ],
    "metallicFactor": 0.6,
    "roughnessFactor": 0.45
   },
   "doubleSided": false
  },
  {
   "name": "Material #2009",
   "pbrMetallicRoughness": {
    "baseColorFactor": [
     0.13,
     0.135,
     0.14,
     1.0
    ],
    "metallicFactor": 0.6,
    "roughnessFactor": 0.45
   },
   "doubleSided": false
  },
  {
   "name": "Material #2012",
   "pbrMetallicRoughness": {
    "baseColorFactor": [
     0.13,
     0.135,
     0.14,
     1.0
    ],
    "metallicFactor": 0.6,
    "roughnessFactor": 0.45
   },
   "doubleSided": false
  },
  {
   "name": "Material #1992",
   "pbrMetallicRoughness": {
    "baseColorFactor": [
     0.13,
     0.16,
     0.19,
     0.42
    ],
    "metallicFactor": 0.0,
    "roughnessFactor": 0.05
   },
   "doubleSided": false,
   "alphaMode": "BLEND"
  },
  {
   "name": "Material #1993",
   "pbrMetallicRoughness": {
    "baseColorFactor": [
     0.13,
     0.16,
     0.19,
     0.42
    ],
    "metallicFactor": 0.0,
    "roughnessFactor": 0.05
   },
   "doubleSided": false,
   "alphaMode": "BLEND"
  },
  {
   "name": "Material #1990",
   "pbrMetallicRoughness": {
    "baseColorFactor": [
     0.13,
     0.135,
     0.14,
     1.0
    ],
    "metallicFactor": 0.6,
    "roughnessFactor": 0.45
   },
   "doubleSided": false
  },
  {
   "name": "Material #1995",
   "pbrMetallicRoughness": {
    "baseColorFactor": [
     0.13,
     0.135,
     0.14,
     1.0
    ],
    "metallicFactor": 0.6,
    "roughnessFactor": 0.45
   },
   "doubleSided": false
  },
  {
   "name": "Material #2007",
   "pbrMetallicRoughness": {
    "baseColorFactor": [
     0.13,
     0.135,
     0.14,
     1.0
    ],
    "metallicFactor": 0.6,
    "roughnessFactor": 0.45
   },
   "doubleSided": false
  },
  {
   "name": "Material #2000",
   "pbrMetallicRoughness": {
    "baseColorFactor": [
     0.13,
     0.16,
     0.19,
     0.42
    ],
    "metallicFactor": 0.0,
    "roughnessFactor": 0.05
   },
   "doubleSided": false,
   "alphaMode": "BLEND"
  },
  {
   "name": "Material #1963",
   "pbrMetallicRoughness": {
    "baseColorFactor": [
     0.075,
     0.075,
     0.08,
     1.0
    ],
    "metallicFactor": 0.55,
    "roughnessFactor": 0.72
   },
   "doubleSided": false
  },
  {
   "name": "Material #2020",
   "pbrMetallicRoughness": {
    "baseColorFactor": [
     0.13,
     0.135,
     0.14,
     1.0
    ],
    "metallicFactor": 0.6,
    "roughnessFactor": 0.45
   },
   "doubleSided": false
  },
  {
   "name": "Material #2001",
   "pbrMetallicRoughness": {
    "baseColorFactor": [
     0.13,
     0.16,
     0.19,
     0.42
    ],
    "metallicFactor": 0.0,
    "roughnessFactor": 0.05
   },
   "doubleSided": false,
   "alphaMode": "BLEND"
  },
  {
   "name": "Material.005",
   "pbrMetallicRoughness": {
    "baseColorFactor": [
     0.13,
     0.135,
     0.14,
     1.0
    ],
    "metallicFactor": 0.6,
    "roughnessFactor": 0.45
   },
   "doubleSided": false
  },
  {
   "name": "Material #2025",
   "pbrMetallicRoughness": {
    "baseColorFactor": [
     0.13,
     0.16,
     0.19,
     0.42
    ],
    "metallicFactor": 0.0,
    "roughnessFactor": 0.05
   },
   "doubleSided": false,
   "alphaMode": "BLEND"
  },
  {
   "name": "Material #1996",
   "pbrMetallicRoughness": {
    "baseColorFactor": [
     0.13,
     0.16,
     0.19,
     0.42
    ],
    "metallicFactor": 0.0,
    "roughnessFactor": 0.05
   },
   "doubleSided": false,
   "alphaMode": "BLEND"
  },
  {
   "name": "Material #2017",
   "pbrMetallicRoughness": {
    "baseColorFactor": [
     0.13,
     0.135,
     0.14,
     1.0
    ],
    "metallicFactor": 0.6,
    "roughnessFactor": 0.45
   },
   "doubleSided": false
  },
  {
   "name": "Material #1985",
   "pbrMetallicRoughness": {
    "baseColorFactor": [
     0.13,
     0.135,
     0.14,
     1.0
    ],
    "metallicFactor": 0.6,
    "roughnessFactor": 0.45
   },
   "doubleSided": false
  },
  {
   "name": "Material #2018",
   "pbrMetallicRoughness": {
    "baseColorFactor": [
     0.075,
     0.075,
     0.08,
     1.0
    ],
    "metallicFactor": 0.55,
    "roughnessFactor": 0.72
   },
   "doubleSided": false
  },
  {
   "name": "Material #1972",
   "pbrMetallicRoughness": {
    "baseColorFactor": [
     0.13,
     0.135,
     0.14,
     1.0
    ],
    "metallicFactor": 0.6,
    "roughnessFactor": 0.45
   },
   "doubleSided": false
  },
  {
   "name": "Material #1977",
   "pbrMetallicRoughness": {
    "baseColorFactor": [
     0.13,
     0.135,
     0.14,
     1.0
    ],
    "metallicFactor": 0.6,
    "roughnessFactor": 0.45
   },
   "doubleSided": false
  },
  {
   "name": "Material #2024",
   "pbrMetallicRoughness": {
    "baseColorFactor": [
     0.13,
     0.135,
     0.14,
     1.0
    ],
    "metallicFactor": 0.6,
    "roughnessFactor": 0.45
   },
   "doubleSided": false
  },
  {
   "name": "Material #1978",
   "pbrMetallicRoughness": {
    "baseColorFactor": [
     0.075,
     0.075,
     0.08,
     1.0
    ],
    "metallicFactor": 0.55,
    "roughnessFactor": 0.72
   },
   "doubleSided": false
  }
 ],
 "accessors": [
  {
   "bufferView": 0,
   "componentType": 5126,
   "count": 6301,
   "type": "VEC3",
   "min": [
    -0.6032960716654915,
    0.8394536172447784,
    -0.22486414652510303
   ],
   "max": [
    0.6948994388837447,
    1.6113656878330036,
    1.0239538487816602
   ]
  },
  {
   "bufferView": 1,
   "componentType": 5126,
   "count": 6301,
   "type": "VEC3"
  },
  {
   "bufferView": 2,
   "componentType": 5126,
   "count": 6301,
   "type": "VEC2"
  },
  {
   "bufferView": 3,
   "componentType": 5123,
   "count": 76329,
   "type": "SCALAR"
  },
  {
   "bufferView": 4,
   "componentType": 5126,
   "count": 15,
   "type": "VEC3",
   "min": [
    0.7361066785471232,
    1.0315012110297346,
    1.8836781168505337
   ],
   "max": [
    0.778048255542383,
    1.052663586155277,
    1.9467444969700194
   ]
  },
  {
   "bufferView": 5,
   "componentType": 5126,
   "count": 15,
   "type": "VEC3"
  },
  {
   "bufferView": 6,
   "componentType": 5126,
   "count": 15,
   "type": "VEC2"
  },
  {
   "bufferView": 7,
   "componentType": 5123,
   "count": 78,
   "type": "SCALAR"
  },
  {
   "bufferView": 8,
   "componentType": 5126,
   "count": 11678,
   "type": "VEC3",
   "min": [
    -1.000751800911162,
    0.584585903269992,
    -1.9255580031903765
   ],
   "max": [
    1.0347960392617042,
    1.8400915884850484,
    2.0059261671620363
   ]
  },
  {
   "bufferView": 9,
   "componentType": 5126,
   "count": 11678,
   "type": "VEC3"
  },
  {
   "bufferView": 10,
   "componentType": 5126,
   "count": 11678,
   "type": "VEC2"
  },
  {
   "bufferView": 11,
   "componentType": 5123,
   "count": 88299,
   "type": "SCALAR"
  },
  {
   "bufferView": 12,
   "componentType": 5126,
   "count": 5834,
   "type": "VEC3",
   "min": [
    -0.8054251436284235,
    0.33438491938009113,
    -2.117495954051806
   ],
   "max": [
    0.8475027362157247,
    1.9981505080965205,
    1.999315240620885
   ]
  },
  {
   "bufferView": 13,
   "componentType": 5126,
   "count": 5834,
   "type": "VEC3"
  },
  {
   "bufferView": 14,
   "componentType": 5126,
   "count": 5834,
   "type": "VEC2"
  },
  {
   "bufferView": 15,
   "componentType": 5123,
   "count": 37461,
   "type": "SCALAR"
  },
  {
   "bufferView": 16,
   "componentType": 5126,
   "count": 1140,
   "type": "VEC3",
   "min": [
    -0.8105302488251133,
    1.2629982234362265,
    1.0624981551380386
   ],
   "max": [
    0.8183769620668679,
    1.7154561156991226,
    1.8170219710629347
   ]
  },
  {
   "bufferView": 17,
   "componentType": 5126,
   "count": 1140,
   "type": "VEC3"
  },
  {
   "bufferView": 18,
   "componentType": 5126,
   "count": 1140,
   "type": "VEC2"
  },
  {
   "bufferView": 19,
   "componentType": 5123,
   "count": 10566,
   "type": "SCALAR"
  },
  {
   "bufferView": 20,
   "componentType": 5126,
   "count": 362,
   "type": "VEC3",
   "min": [
    -0.16559554700645374,
    0.5683307337486843,
    -2.044289773998797
   ],
   "max": [
    1.194769555986549,
    1.893164403630397,
    -1.7567692499283452
   ]
  },
  {
   "bufferView": 21,
   "componentType": 5126,
   "count": 362,
   "type": "VEC3"
  },
  {
   "bufferView": 22,
   "componentType": 5126,
   "count": 362,
   "type": "VEC2"
  },
  {
   "bufferView": 23,
   "componentType": 5123,
   "count": 7422,
   "type": "SCALAR"
  },
  {
   "bufferView": 24,
   "componentType": 5126,
   "count": 3212,
   "type": "VEC3",
   "min": [
    -0.6618352579426421,
    0.5685869461480842,
    -0.6473108975519202
   ],
   "max": [
    0.6363320803106873,
    1.3801880214549802,
    1.0279356104497372
   ]
  },
  {
   "bufferView": 25,
   "componentType": 5126,
   "count": 3212,
   "type": "VEC3"
  },
  {
   "bufferView": 26,
   "componentType": 5126,
   "count": 3212,
   "type": "VEC2"
  },
  {
   "bufferView": 27,
   "componentType": 5123,
   "count": 19956,
   "type": "SCALAR"
  },
  {
   "bufferView": 28,
   "componentType": 5126,
   "count": 102,
   "type": "VEC3",
   "min": [
    -0.6664243231051992,
    0.9360185586242667,
    -1.9112463306800056
   ],
   "max": [
    0.688560172132483,
    1.1526913899958535,
    -1.8876522528498714
   ]
  },
  {
   "bufferView": 29,
   "componentType": 5126,
   "count": 102,
   "type": "VEC3"
  },
  {
   "bufferView": 30,
   "componentType": 5126,
   "count": 102,
   "type": "VEC2"
  },
  {
   "bufferView": 31,
   "componentType": 5123,
   "count": 396,
   "type": "SCALAR"
  },
  {
   "bufferView": 32,
   "componentType": 5126,
   "count": 2512,
   "type": "VEC3",
   "min": [
    -0.3987583183598428,
    0.6802039377663229,
    1.9831983794568318
   ],
   "max": [
    0.49318025819162953,
    1.567048418269321,
    2.414260599768236
   ]
  },
  {
   "bufferView": 33,
   "componentType": 5126,
   "count": 2512,
   "type": "VEC3"
  },
  {
   "bufferView": 34,
   "componentType": 5126,
   "count": 2512,
   "type": "VEC2"
  },
  {
   "bufferView": 35,
   "componentType": 5123,
   "count": 15150,
   "type": "SCALAR"
  },
  {
   "bufferView": 36,
   "componentType": 5126,
   "count": 1050,
   "type": "VEC3",
   "min": [
    -0.799212235077311,
    0.6519150339732216,
    -1.9894113076335447
   ],
   "max": [
    0.8136978636977598,
    1.7015775725047493,
    2.006279890749905
   ]
  },
  {
   "bufferView": 37,
   "componentType": 5126,
   "count": 1050,
   "type": "VEC3"
  },
  {
   "bufferView": 38,
   "componentType": 5126,
   "count": 1050,
   "type": "VEC2"
  },
  {
   "bufferView": 39,
   "componentType": 5123,
   "count": 9744,
   "type": "SCALAR"
  },
  {
   "bufferView": 40,
   "componentType": 5126,
   "count": 178,
   "type": "VEC3",
   "min": [
    -0.7834355335668498,
    0.6788802242476437,
    -0.7446699335900894
   ],
   "max": [
    0.8112208200927183,
    1.6251135189682533,
    2.399896225475777
   ]
  },
  {
   "bufferView": 41,
   "componentType": 5126,
   "count": 178,
   "type": "VEC3"
  },
  {
   "bufferView": 42,
   "componentType": 5126,
   "count": 178,
   "type": "VEC2"
  },
  {
   "bufferView": 43,
   "componentType": 5123,
   "count": 1146,
   "type": "SCALAR"
  },
  {
   "bufferView": 44,
   "componentType": 5126,
   "count": 343,
   "type": "VEC3",
   "min": [
    -0.7750960562980053,
    1.1213756261934678,
    -1.69787662498642
   ],
   "max": [
    0.7941702769125971,
    2.2344255947615417,
    1.673728319058249
   ]
  },
  {
   "bufferView": 45,
   "componentType": 5126,
   "count": 343,
   "type": "VEC3"
  },
  {
   "bufferView": 46,
   "componentType": 5126,
   "count": 343,
   "type": "VEC2"
  },
  {
   "bufferView": 47,
   "componentType": 5123,
   "count": 2292,
   "type": "SCALAR"
  },
  {
   "bufferView": 48,
   "componentType": 5126,
   "count": 456,
   "type": "VEC3",
   "min": [
    -0.20732804957104536,
    0.8731694705616525,
    2.308496890005893
   ],
   "max": [
    0.29254653083790844,
    1.37337874689529,
    2.437377849144781
   ]
  },
  {
   "bufferView": 49,
   "componentType": 5126,
   "count": 456,
   "type": "VEC3"
  },
  {
   "bufferView": 50,
   "componentType": 5126,
   "count": 456,
   "type": "VEC2"
  },
  {
   "bufferView": 51,
   "componentType": 5123,
   "count": 4746,
   "type": "SCALAR"
  },
  {
   "bufferView": 52,
   "componentType": 5126,
   "count": 89,
   "type": "VEC3",
   "min": [
    -0.7625026881555901,
    0.9773970327128673,
    -1.9111176079836962
   ],
   "max": [
    0.7985398943385408,
    1.4760189297760569,
    1.983462092157177
   ]
  },
  {
   "bufferView": 53,
   "componentType": 5126,
   "count": 89,
   "type": "VEC3"
  },
  {
   "bufferView": 54,
   "componentType": 5126,
   "count": 89,
   "type": "VEC2"
  },
  {
   "bufferView": 55,
   "componentType": 5123,
   "count": 282,
   "type": "SCALAR"
  },
  {
   "bufferView": 56,
   "componentType": 5126,
   "count": 123,
   "type": "VEC3",
   "min": [
    -0.9247221410059188,
    1.4005711301728194,
    -0.6374464642162257
   ],
   "max": [
    0.9445269060957279,
    1.6148620279244115,
    -0.5388552027865856
   ]
  },
  {
   "bufferView": 57,
   "componentType": 5126,
   "count": 123,
   "type": "VEC3"
  },
  {
   "bufferView": 58,
   "componentType": 5126,
   "count": 123,
   "type": "VEC2"
  },
  {
   "bufferView": 59,
   "componentType": 5123,
   "count": 690,
   "type": "SCALAR"
  },
  {
   "bufferView": 60,
   "componentType": 5126,
   "count": 124,
   "type": "VEC3",
   "min": [
    -0.6838357950476969,
    1.0357070271506303,
    -1.8929754171184532
   ],
   "max": [
    0.6877707193439062,
    1.6044485287702521,
    -0.3934399734173145
   ]
  },
  {
   "bufferView": 61,
   "componentType": 5126,
   "count": 124,
   "type": "VEC3"
  },
  {
   "bufferView": 62,
   "componentType": 5126,
   "count": 124,
   "type": "VEC2"
  },
  {
   "bufferView": 63,
   "componentType": 5123,
   "count": 528,
   "type": "SCALAR"
  },
  {
   "bufferView": 64,
   "componentType": 5126,
   "count": 332,
   "type": "VEC3",
   "min": [
    -0.20013402862832708,
    0.4864481837549384,
    -2.14345702576894
   ],
   "max": [
    0.18735088372708406,
    0.722973099512393,
    2.2604072164686273
   ]
  },
  {
   "bufferView": 65,
   "componentType": 5126,
   "count": 332,
   "type": "VEC3"
  },
  {
   "bufferView": 66,
   "componentType": 5126,
   "count": 332,
   "type": "VEC2"
  },
  {
   "bufferView": 67,
   "componentType": 5123,
   "count": 2058,
   "type": "SCALAR"
  },
  {
   "bufferView": 68,
   "componentType": 5126,
   "count": 76,
   "type": "VEC3",
   "min": [
    -0.09254099050813035,
    0.7735237906857092,
    -0.10896642670171532
   ],
   "max": [
    0.008524078114725706,
    0.8871875142241352,
    0.014004058351490156
   ]
  },
  {
   "bufferView": 69,
   "componentType": 5126,
   "count": 76,
   "type": "VEC3"
  },
  {
   "bufferView": 70,
   "componentType": 5126,
   "count": 76,
   "type": "VEC2"
  },
  {
   "bufferView": 71,
   "componentType": 5123,
   "count": 444,
   "type": "SCALAR"
  },
  {
   "bufferView": 72,
   "componentType": 5126,
   "count": 531,
   "type": "VEC3",
   "min": [
    -0.3900919065282143,
    0.46513057849271294,
    -1.5484559973791214
   ],
   "max": [
    0.4181861010963467,
    0.6517254998878299,
    1.5323868450721316
   ]
  },
  {
   "bufferView": 73,
   "componentType": 5126,
   "count": 531,
   "type": "VEC3"
  },
  {
   "bufferView": 74,
   "componentType": 5126,
   "count": 531,
   "type": "VEC2"
  },
  {
   "bufferView": 75,
   "componentType": 5123,
   "count": 3144,
   "type": "SCALAR"
  },
  {
   "bufferView": 76,
   "componentType": 5126,
   "count": 949,
   "type": "VEC3",
   "min": [
    -0.6388517572655347,
    0.39609206899064064,
    -2.0391046347587736
   ],
   "max": [
    0.8557233276644287,
    1.359419802668391,
    2.204981988609916
   ]
  },
  {
   "bufferView": 77,
   "componentType": 5126,
   "count": 949,
   "type": "VEC3"
  },
  {
   "bufferView": 78,
   "componentType": 5126,
   "count": 949,
   "type": "VEC2"
  },
  {
   "bufferView": 79,
   "componentType": 5123,
   "count": 7272,
   "type": "SCALAR"
  },
  {
   "bufferView": 80,
   "componentType": 5126,
   "count": 1344,
   "type": "VEC3",
   "min": [
    -0.8095405400360042,
    1.1411513703005471,
    -1.9580460244798634
   ],
   "max": [
    0.828330120509448,
    2.0679991881346917,
    2.016939090467493
   ]
  },
  {
   "bufferView": 81,
   "componentType": 5126,
   "count": 1344,
   "type": "VEC3"
  },
  {
   "bufferView": 82,
   "componentType": 5126,
   "count": 1344,
   "type": "VEC2"
  },
  {
   "bufferView": 83,
   "componentType": 5123,
   "count": 11136,
   "type": "SCALAR"
  },
  {
   "bufferView": 84,
   "componentType": 5126,
   "count": 450,
   "type": "VEC3",
   "min": [
    -0.6147836682055176,
    1.8774039600093124,
    -0.5588580057780317
   ],
   "max": [
    0.6473911888524594,
    2.0358500753846305,
    -0.37561555594222357
   ]
  },
  {
   "bufferView": 85,
   "componentType": 5126,
   "count": 450,
   "type": "VEC3"
  },
  {
   "bufferView": 86,
   "componentType": 5126,
   "count": 450,
   "type": "VEC2"
  },
  {
   "bufferView": 87,
   "componentType": 5123,
   "count": 4506,
   "type": "SCALAR"
  },
  {
   "bufferView": 88,
   "componentType": 5126,
   "count": 231,
   "type": "VEC3",
   "min": [
    -0.7039423493494888,
    0.7042986168281623,
    -2.179313532899739
   ],
   "max": [
    0.7198021492759289,
    0.9211674755821108,
    -2.0499891083613533
   ]
  },
  {
   "bufferView": 89,
   "componentType": 5126,
   "count": 231,
   "type": "VEC3"
  },
  {
   "bufferView": 90,
   "componentType": 5126,
   "count": 231,
   "type": "VEC2"
  },
  {
   "bufferView": 91,
   "componentType": 5123,
   "count": 1218,
   "type": "SCALAR"
  },
  {
   "bufferView": 92,
   "componentType": 5126,
   "count": 154,
   "type": "VEC3",
   "min": [
    -0.6389457811365146,
    0.590811809459814,
    -2.0523867063533725
   ],
   "max": [
    0.6862430548538002,
    1.1748250331285666,
    2.0190905463832984
   ]
  },
  {
   "bufferView": 93,
   "componentType": 5126,
   "count": 154,
   "type": "VEC3"
  },
  {
   "bufferView": 94,
   "componentType": 5126,
   "count": 154,
   "type": "VEC2"
  },
  {
   "bufferView": 95,
   "componentType": 5123,
   "count": 738,
   "type": "SCALAR"
  },
  {
   "bufferView": 96,
   "componentType": 5126,
   "count": 747,
   "type": "VEC3",
   "min": [
    -0.5546499579265854,
    0.8224430573002954,
    -1.8973602309082562
   ],
   "max": [
    0.44504939971146495,
    1.1690236192991508,
    -1.8047950584983674
   ]
  },
  {
   "bufferView": 97,
   "componentType": 5126,
   "count": 747,
   "type": "VEC3"
  },
  {
   "bufferView": 98,
   "componentType": 5126,
   "count": 747,
   "type": "VEC2"
  },
  {
   "bufferView": 99,
   "componentType": 5123,
   "count": 6348,
   "type": "SCALAR"
  },
  {
   "bufferView": 100,
   "componentType": 5126,
   "count": 286,
   "type": "VEC3",
   "min": [
    -0.8763042460475879,
    0.8170637816230283,
    -2.048430275169616
   ],
   "max": [
    0.9020653353736302,
    1.4736780214715737,
    -0.5218892115664112
   ]
  },
  {
   "bufferView": 101,
   "componentType": 5126,
   "count": 286,
   "type": "VEC3"
  },
  {
   "bufferView": 102,
   "componentType": 5126,
   "count": 286,
   "type": "VEC2"
  },
  {
   "bufferView": 103,
   "componentType": 5123,
   "count": 1920,
   "type": "SCALAR"
  },
  {
   "bufferView": 104,
   "componentType": 5126,
   "count": 2944,
   "type": "VEC3",
   "min": [
    -0.7395608379027349,
    1.294794018814628,
    -0.5643123172889913
   ],
   "max": [
    0.7738479573429679,
    1.7558557692824726,
    1.999633144752826
   ]
  },
  {
   "bufferView": 105,
   "componentType": 5126,
   "count": 2944,
   "type": "VEC3"
  },
  {
   "bufferView": 106,
   "componentType": 5126,
   "count": 2944,
   "type": "VEC2"
  },
  {
   "bufferView": 107,
   "componentType": 5123,
   "count": 26412,
   "type": "SCALAR"
  },
  {
   "bufferView": 108,
   "componentType": 5126,
   "count": 215,
   "type": "VEC3",
   "min": [
    -0.602965842531122,
    0.5448018024411848,
    -2.2028182751045158
   ],
   "max": [
    0.6069961794900635,
    0.6777488662502836,
    2.324545979281262
   ]
  },
  {
   "bufferView": 109,
   "componentType": 5126,
   "count": 215,
   "type": "VEC3"
  },
  {
   "bufferView": 110,
   "componentType": 5126,
   "count": 215,
   "type": "VEC2"
  },
  {
   "bufferView": 111,
   "componentType": 5123,
   "count": 1392,
   "type": "SCALAR"
  },
  {
   "bufferView": 112,
   "componentType": 5126,
   "count": 108,
   "type": "VEC3",
   "min": [
    0.09280182746902027,
    0.8737326635473082,
    -1.931240434948503
   ],
   "max": [
    0.4167490098225154,
    1.081501670609757,
    -1.9235509067149994
   ]
  },
  {
   "bufferView": 113,
   "componentType": 5126,
   "count": 108,
   "type": "VEC3"
  },
  {
   "bufferView": 114,
   "componentType": 5126,
   "count": 108,
   "type": "VEC2"
  },
  {
   "bufferView": 115,
   "componentType": 5123,
   "count": 516,
   "type": "SCALAR"
  },
  {
   "bufferView": 116,
   "componentType": 5126,
   "count": 1222,
   "type": "VEC3",
   "min": [
    -0.7506116760016691,
    0.8643643982585536,
    -1.899532697705752
   ],
   "max": [
    0.7753819104612479,
    1.7628933430160776,
    1.0418721033872942
   ]
  },
  {
   "bufferView": 117,
   "componentType": 5126,
   "count": 1222,
   "type": "VEC3"
  },
  {
   "bufferView": 118,
   "componentType": 5126,
   "count": 1222,
   "type": "VEC2"
  },
  {
   "bufferView": 119,
   "componentType": 5123,
   "count": 7122,
   "type": "SCALAR"
  },
  {
   "bufferView": 120,
   "componentType": 5126,
   "count": 709,
   "type": "VEC3",
   "min": [
    -0.3799140830660295,
    0.507262216776193,
    -1.5307679818471822
   ],
   "max": [
    0.43670981597110686,
    0.6190922225837775,
    1.5097224908070697
   ]
  },
  {
   "bufferView": 121,
   "componentType": 5126,
   "count": 709,
   "type": "VEC3"
  },
  {
   "bufferView": 122,
   "componentType": 5126,
   "count": 709,
   "type": "VEC2"
  },
  {
   "bufferView": 123,
   "componentType": 5123,
   "count": 4254,
   "type": "SCALAR"
  },
  {
   "bufferView": 124,
   "componentType": 5126,
   "count": 267,
   "type": "VEC3",
   "min": [
    -0.7292707823465167,
    0.7923318965125431,
    -1.9287981191083101
   ],
   "max": [
    0.7605533347809165,
    2.0640540540203047,
    1.0679681160035648
   ]
  },
  {
   "bufferView": 125,
   "componentType": 5126,
   "count": 267,
   "type": "VEC3"
  },
  {
   "bufferView": 126,
   "componentType": 5126,
   "count": 267,
   "type": "VEC2"
  },
  {
   "bufferView": 127,
   "componentType": 5123,
   "count": 2100,
   "type": "SCALAR"
  },
  {
   "bufferView": 128,
   "componentType": 5126,
   "count": 267,
   "type": "VEC3",
   "min": [
    -0.14098274008829778,
    0.9299407176231175,
    2.3074925539890603
   ],
   "max": [
    0.22738191179247655,
    1.3140161842997549,
    2.3961888246663716
   ]
  },
  {
   "bufferView": 129,
   "componentType": 5126,
   "count": 267,
   "type": "VEC3"
  },
  {
   "bufferView": 130,
   "componentType": 5126,
   "count": 267,
   "type": "VEC2"
  },
  {
   "bufferView": 131,
   "componentType": 5123,
   "count": 3162,
   "type": "SCALAR"
  },
  {
   "bufferView": 132,
   "componentType": 5126,
   "count": 68,
   "type": "VEC3",
   "min": [
    -0.24990081807008815,
    0.7825657841576582,
    -1.9305036186982425
   ],
   "max": [
    0.7701920232804089,
    1.27902104953968,
    2.013402839511291
   ]
  },
  {
   "bufferView": 133,
   "componentType": 5126,
   "count": 68,
   "type": "VEC3"
  },
  {
   "bufferView": 134,
   "componentType": 5126,
   "count": 68,
   "type": "VEC2"
  },
  {
   "bufferView": 135,
   "componentType": 5123,
   "count": 219,
   "type": "SCALAR"
  },
  {
   "bufferView": 136,
   "componentType": 5126,
   "count": 1889,
   "type": "VEC3",
   "min": [
    -0.3893195960222156,
    0.6897454710699136,
    1.9926913764287952
   ],
   "max": [
    0.479474091866638,
    1.5567666151321087,
    2.4055852710317214
   ]
  },
  {
   "bufferView": 137,
   "componentType": 5126,
   "count": 1889,
   "type": "VEC3"
  },
  {
   "bufferView": 138,
   "componentType": 5126,
   "count": 1889,
   "type": "VEC2"
  },
  {
   "bufferView": 139,
   "componentType": 5123,
   "count": 11370,
   "type": "SCALAR"
  },
  {
   "bufferView": 140,
   "componentType": 5126,
   "count": 46,
   "type": "VEC3",
   "min": [
    -0.664423875007102,
    0.9370225831554799,
    -1.9040151469201974
   ],
   "max": [
    0.6882267924829246,
    1.1450667508464825,
    -1.8752067253309428
   ]
  },
  {
   "bufferView": 141,
   "componentType": 5126,
   "count": 46,
   "type": "VEC3"
  },
  {
   "bufferView": 142,
   "componentType": 5126,
   "count": 46,
   "type": "VEC2"
  },
  {
   "bufferView": 143,
   "componentType": 5123,
   "count": 228,
   "type": "SCALAR"
  },
  {
   "bufferView": 144,
   "componentType": 5126,
   "count": 196,
   "type": "VEC3",
   "min": [
    -0.6234807539973127,
    0.9770488964913727,
    -1.9687472143239022
   ],
   "max": [
    0.6432640659498509,
    1.4724657220616675,
    -0.5375799525998471
   ]
  },
  {
   "bufferView": 145,
   "componentType": 5126,
   "count": 196,
   "type": "VEC3"
  },
  {
   "bufferView": 146,
   "componentType": 5126,
   "count": 196,
   "type": "VEC2"
  },
  {
   "bufferView": 147,
   "componentType": 5123,
   "count": 1128,
   "type": "SCALAR"
  },
  {
   "bufferView": 148,
   "componentType": 5126,
   "count": 151,
   "type": "VEC3",
   "min": [
    -0.100944611812269,
    0.8961369835609544,
    -0.2035029234778023
   ],
   "max": [
    0.09324461416138477,
    0.9317455666233854,
    0.168808851028006
   ]
  },
  {
   "bufferView": 149,
   "componentType": 5126,
   "count": 151,
   "type": "VEC3"
  },
  {
   "bufferView": 150,
   "componentType": 5126,
   "count": 151,
   "type": "VEC2"
  },
  {
   "bufferView": 151,
   "componentType": 5123,
   "count": 771,
   "type": "SCALAR"
  },
  {
   "bufferView": 152,
   "componentType": 5126,
   "count": 495,
   "type": "VEC3",
   "min": [
    -0.8259110397760935,
    0.5168248966546023,
    -2.1224224994301584
   ],
   "max": [
    0.8283783140599067,
    0.7480215190202656,
    -1.7451255403563743
   ]
  },
  {
   "bufferView": 153,
   "componentType": 5126,
   "count": 495,
   "type": "VEC3"
  },
  {
   "bufferView": 154,
   "componentType": 5126,
   "count": 495,
   "type": "VEC2"
  },
  {
   "bufferView": 155,
   "componentType": 5123,
   "count": 2970,
   "type": "SCALAR"
  },
  {
   "bufferView": 156,
   "componentType": 5126,
   "count": 509,
   "type": "VEC3",
   "min": [
    -0.8086446764247178,
    0.516825040888044,
    1.857391947005069
   ],
   "max": [
    0.8466138873491905,
    0.7480212686780998,
    2.2478104325076984
   ]
  },
  {
   "bufferView": 157,
   "componentType": 5126,
   "count": 509,
   "type": "VEC3"
  },
  {
   "bufferView": 158,
   "componentType": 5126,
   "count": 509,
   "type": "VEC2"
  },
  {
   "bufferView": 159,
   "componentType": 5123,
   "count": 3072,
   "type": "SCALAR"
  },
  {
   "bufferView": 160,
   "componentType": 5126,
   "count": 283,
   "type": "VEC3",
   "min": [
    -0.9275836009570365,
    1.4032457742925386,
    -0.6417797545316554
   ],
   "max": [
    0.9506004947671755,
    1.99272104911733,
    -0.44925531962046145
   ]
  },
  {
   "bufferView": 161,
   "componentType": 5126,
   "count": 283,
   "type": "VEC3"
  },
  {
   "bufferView": 162,
   "componentType": 5126,
   "count": 283,
   "type": "VEC2"
  },
  {
   "bufferView": 163,
   "componentType": 5123,
   "count": 1620,
   "type": "SCALAR"
  },
  {
   "bufferView": 164,
   "componentType": 5126,
   "count": 130,
   "type": "VEC3",
   "min": [
    -0.636761228735845,
    0.5909947541887847,
    -2.075775781826727
   ],
   "max": [
    0.6790976625687336,
    0.9237465489578173,
    2.0649447529087315
   ]
  },
  {
   "bufferView": 165,
   "componentType": 5126,
   "count": 130,
   "type": "VEC3"
  },
  {
   "bufferView": 166,
   "componentType": 5126,
   "count": 130,
   "type": "VEC2"
  },
  {
   "bufferView": 167,
   "componentType": 5123,
   "count": 738,
   "type": "SCALAR"
  },
  {
   "bufferView": 168,
   "componentType": 5126,
   "count": 149,
   "type": "VEC3",
   "min": [
    -0.5827592438941941,
    0.5433320556401463,
    -2.189109249358144
   ],
   "max": [
    0.5894512594533459,
    0.66750861615569,
    2.3147696944048017
   ]
  },
  {
   "bufferView": 169,
   "componentType": 5126,
   "count": 149,
   "type": "VEC3"
  },
  {
   "bufferView": 170,
   "componentType": 5126,
   "count": 149,
   "type": "VEC2"
  },
  {
   "bufferView": 171,
   "componentType": 5123,
   "count": 558,
   "type": "SCALAR"
  },
  {
   "bufferView": 172,
   "componentType": 5126,
   "count": 312,
   "type": "VEC3",
   "min": [
    -0.7884094850445553,
    0.6759513027905162,
    -0.5306108446332074
   ],
   "max": [
    0.8146446623371545,
    0.980015420552382,
    -0.13497654189072705
   ]
  },
  {
   "bufferView": 173,
   "componentType": 5126,
   "count": 312,
   "type": "VEC3"
  },
  {
   "bufferView": 174,
   "componentType": 5126,
   "count": 312,
   "type": "VEC2"
  },
  {
   "bufferView": 175,
   "componentType": 5123,
   "count": 3180,
   "type": "SCALAR"
  },
  {
   "bufferView": 176,
   "componentType": 5126,
   "count": 71,
   "type": "VEC3",
   "min": [
    -0.5209086992118485,
    0.8377445297123162,
    -2.014567625201384
   ],
   "max": [
    0.49456991800214956,
    0.9392125779766496,
    -1.9922404019171829
   ]
  },
  {
   "bufferView": 177,
   "componentType": 5126,
   "count": 71,
   "type": "VEC3"
  },
  {
   "bufferView": 178,
   "componentType": 5126,
   "count": 71,
   "type": "VEC2"
  },
  {
   "bufferView": 179,
   "componentType": 5123,
   "count": 516,
   "type": "SCALAR"
  },
  {
   "bufferView": 180,
   "componentType": 5126,
   "count": 186,
   "type": "VEC3",
   "min": [
    -0.6195979546238288,
    1.879222137586472,
    -0.5298631896353809
   ],
   "max": [
    0.6485317355495054,
    2.034398711380428,
    -0.4441305198793401
   ]
  },
  {
   "bufferView": 181,
   "componentType": 5126,
   "count": 186,
   "type": "VEC3"
  },
  {
   "bufferView": 182,
   "componentType": 5126,
   "count": 186,
   "type": "VEC2"
  },
  {
   "bufferView": 183,
   "componentType": 5123,
   "count": 1080,
   "type": "SCALAR"
  },
  {
   "bufferView": 184,
   "componentType": 5126,
   "count": 283,
   "type": "VEC3",
   "min": [
    -0.503472876192165,
    2.0243757317243762,
    0.5670531495173695
   ],
   "max": [
    0.5257075603149962,
    2.2830131192200547,
    1.7948624271838682
   ]
  },
  {
   "bufferView": 185,
   "componentType": 5126,
   "count": 283,
   "type": "VEC3"
  },
  {
   "bufferView": 186,
   "componentType": 5126,
   "count": 283,
   "type": "VEC2"
  },
  {
   "bufferView": 187,
   "componentType": 5123,
   "count": 1734,
   "type": "SCALAR"
  },
  {
   "bufferView": 188,
   "componentType": 5126,
   "count": 162,
   "type": "VEC3",
   "min": [
    -0.8852881102478561,
    1.248408381947588,
    1.036642143581757
   ],
   "max": [
    0.8855487310889191,
    1.7513962829068535,
    1.8465540906928366
   ]
  },
  {
   "bufferView": 189,
   "componentType": 5126,
   "count": 162,
   "type": "VEC3"
  },
  {
   "bufferView": 190,
   "componentType": 5126,
   "count": 162,
   "type": "VEC2"
  },
  {
   "bufferView": 191,
   "componentType": 5123,
   "count": 1092,
   "type": "SCALAR"
  },
  {
   "bufferView": 192,
   "componentType": 5126,
   "count": 105,
   "type": "VEC3",
   "min": [
    -0.5188027045657472,
    0.8328564533155505,
    -2.052462115829526
   ],
   "max": [
    0.49263757680729964,
    0.9344260580696703,
    -1.9564547602888034
   ]
  },
  {
   "bufferView": 193,
   "componentType": 5126,
   "count": 105,
   "type": "VEC3"
  },
  {
   "bufferView": 194,
   "componentType": 5126,
   "count": 105,
   "type": "VEC2"
  },
  {
   "bufferView": 195,
   "componentType": 5123,
   "count": 606,
   "type": "SCALAR"
  },
  {
   "bufferView": 196,
   "componentType": 5126,
   "count": 303,
   "type": "VEC3",
   "min": [
    -0.6748635756076603,
    0.7116450449387988,
    -2.2587094190752937
   ],
   "max": [
    0.6981037342356081,
    0.9132401633183841,
    -2.102905152701656
   ]
  },
  {
   "bufferView": 197,
   "componentType": 5126,
   "count": 303,
   "type": "VEC3"
  },
  {
   "bufferView": 198,
   "componentType": 5126,
   "count": 303,
   "type": "VEC2"
  },
  {
   "bufferView": 199,
   "componentType": 5123,
   "count": 1806,
   "type": "SCALAR"
  },
  {
   "bufferView": 200,
   "componentType": 5126,
   "count": 101,
   "type": "VEC3",
   "min": [
    -0.6386355433453259,
    1.0796791182954861,
    1.9435630428972586
   ],
   "max": [
    0.6773192589625766,
    1.1747117419704645,
    2.0502465925301356
   ]
  },
  {
   "bufferView": 201,
   "componentType": 5126,
   "count": 101,
   "type": "VEC3"
  },
  {
   "bufferView": 202,
   "componentType": 5126,
   "count": 101,
   "type": "VEC2"
  },
  {
   "bufferView": 203,
   "componentType": 5123,
   "count": 582,
   "type": "SCALAR"
  },
  {
   "bufferView": 204,
   "componentType": 5126,
   "count": 106,
   "type": "VEC3",
   "min": [
    -0.6376567018459659,
    0.9617591081230168,
    1.9582333269881134
   ],
   "max": [
    0.6800106632236925,
    1.0549664138770845,
    2.065640842708262
   ]
  },
  {
   "bufferView": 205,
   "componentType": 5126,
   "count": 106,
   "type": "VEC3"
  },
  {
   "bufferView": 206,
   "componentType": 5126,
   "count": 106,
   "type": "VEC2"
  },
  {
   "bufferView": 207,
   "componentType": 5123,
   "count": 624,
   "type": "SCALAR"
  },
  {
   "bufferView": 208,
   "componentType": 5126,
   "count": 236,
   "type": "VEC3",
   "min": [
    -0.47080350126910714,
    0.8183611599324766,
    -2.048481281044464
   ],
   "max": [
    0.49270509495703757,
    1.9324398836913919,
    -0.3821030162284706
   ]
  },
  {
   "bufferView": 209,
   "componentType": 5126,
   "count": 236,
   "type": "VEC3"
  },
  {
   "bufferView": 210,
   "componentType": 5126,
   "count": 236,
   "type": "VEC2"
  },
  {
   "bufferView": 211,
   "componentType": 5123,
   "count": 1368,
   "type": "SCALAR"
  },
  {
   "bufferView": 212,
   "componentType": 5126,
   "count": 561,
   "type": "VEC3",
   "min": [
    -0.44733400007767204,
    1.425501648808412,
    0.07887760270199615
   ],
   "max": [
    0.4850684263505515,
    2.3067923366474195,
    1.0386496743174192
   ]
  },
  {
   "bufferView": 213,
   "componentType": 5126,
   "count": 561,
   "type": "VEC3"
  },
  {
   "bufferView": 214,
   "componentType": 5126,
   "count": 561,
   "type": "VEC2"
  },
  {
   "bufferView": 215,
   "componentType": 5123,
   "count": 4752,
   "type": "SCALAR"
  },
  {
   "bufferView": 216,
   "componentType": 5126,
   "count": 18,
   "type": "VEC3",
   "min": [
    -0.521025546161203,
    0.825080241346815,
    -1.9957723111656906
   ],
   "max": [
    -0.4227220266625551,
    0.9411613003653935,
    -1.991705274150046
   ]
  },
  {
   "bufferView": 217,
   "componentType": 5126,
   "count": 18,
   "type": "VEC3"
  },
  {
   "bufferView": 218,
   "componentType": 5126,
   "count": 18,
   "type": "VEC2"
  },
  {
   "bufferView": 219,
   "componentType": 5123,
   "count": 72,
   "type": "SCALAR"
  },
  {
   "bufferView": 220,
   "componentType": 5126,
   "count": 18,
   "type": "VEC3",
   "min": [
    -0.5829577233731811,
    1.3805082917917182,
    -1.1138853359618632
   ],
   "max": [
    0.6072405063640894,
    1.456099055161556,
    -1.104009027345329
   ]
  },
  {
   "bufferView": 221,
   "componentType": 5126,
   "count": 18,
   "type": "VEC3"
  },
  {
   "bufferView": 222,
   "componentType": 5126,
   "count": 18,
   "type": "VEC2"
  },
  {
   "bufferView": 223,
   "componentType": 5123,
   "count": 96,
   "type": "SCALAR"
  },
  {
   "bufferView": 224,
   "componentType": 5126,
   "count": 49,
   "type": "VEC3",
   "min": [
    -0.3277943198959924,
    0.6452527952682586,
    -1.4258835242275405
   ],
   "max": [
    0.3806360124937485,
    0.7551226783305313,
    1.4228445827386471
   ]
  },
  {
   "bufferView": 225,
   "componentType": 5126,
   "count": 49,
   "type": "VEC3"
  },
  {
   "bufferView": 226,
   "componentType": 5126,
   "count": 49,
   "type": "VEC2"
  },
  {
   "bufferView": 227,
   "componentType": 5123,
   "count": 246,
   "type": "SCALAR"
  },
  {
   "bufferView": 228,
   "componentType": 5126,
   "count": 182,
   "type": "VEC3",
   "min": [
    -0.2870424532972667,
    2.0608752973473172,
    0.05133400713840893
   ],
   "max": [
    0.2369712483942378,
    2.1342873090402392,
    0.5749792657841125
   ]
  },
  {
   "bufferView": 229,
   "componentType": 5126,
   "count": 182,
   "type": "VEC3"
  },
  {
   "bufferView": 230,
   "componentType": 5126,
   "count": 182,
   "type": "VEC2"
  },
  {
   "bufferView": 231,
   "componentType": 5123,
   "count": 1080,
   "type": "SCALAR"
  },
  {
   "bufferView": 232,
   "componentType": 5126,
   "count": 126,
   "type": "VEC3",
   "min": [
    -0.7259783277584162,
    1.9411153803061363,
    -1.1207310504241248
   ],
   "max": [
    0.6115110662118137,
    2.2309100020377586,
    -0.9582359841727593
   ]
  },
  {
   "bufferView": 233,
   "componentType": 5126,
   "count": 126,
   "type": "VEC3"
  },
  {
   "bufferView": 234,
   "componentType": 5126,
   "count": 126,
   "type": "VEC2"
  },
  {
   "bufferView": 235,
   "componentType": 5123,
   "count": 627,
   "type": "SCALAR"
  },
  {
   "bufferView": 236,
   "componentType": 5126,
   "count": 50,
   "type": "VEC3",
   "min": [
    -0.7604692244028034,
    1.2674883212587011,
    -0.6594219290825417
   ],
   "max": [
    -0.7298522181452803,
    1.3705490784774956,
    -0.5660389995706414
   ]
  },
  {
   "bufferView": 237,
   "componentType": 5126,
   "count": 50,
   "type": "VEC3"
  },
  {
   "bufferView": 238,
   "componentType": 5126,
   "count": 50,
   "type": "VEC2"
  },
  {
   "bufferView": 239,
   "componentType": 5123,
   "count": 288,
   "type": "SCALAR"
  },
  {
   "bufferView": 240,
   "componentType": 5126,
   "count": 267,
   "type": "VEC3",
   "min": [
    0.7241658342459051,
    1.1664739296038171,
    -1.7072862495079348
   ],
   "max": [
    0.88948112278457,
    2.067412506099414,
    -0.7025567780544714
   ]
  },
  {
   "bufferView": 241,
   "componentType": 5126,
   "count": 267,
   "type": "VEC3"
  },
  {
   "bufferView": 242,
   "componentType": 5126,
   "count": 267,
   "type": "VEC2"
  },
  {
   "bufferView": 243,
   "componentType": 5123,
   "count": 1590,
   "type": "SCALAR"
  },
  {
   "bufferView": 244,
   "componentType": 5126,
   "count": 101,
   "type": "VEC3",
   "min": [
    -0.3872240850979414,
    1.2007494908059413,
    -1.9256672961879142
   ],
   "max": [
    0.3321642179194219,
    1.2837907718234085,
    2.004752068826188
   ]
  },
  {
   "bufferView": 245,
   "componentType": 5126,
   "count": 101,
   "type": "VEC3"
  },
  {
   "bufferView": 246,
   "componentType": 5126,
   "count": 101,
   "type": "VEC2"
  },
  {
   "bufferView": 247,
   "componentType": 5123,
   "count": 465,
   "type": "SCALAR"
  },
  {
   "bufferView": 248,
   "componentType": 5126,
   "count": 10,
   "type": "VEC3",
   "min": [
    0.7643994589455784,
    1.214262271099623,
    -1.7719464495149395
   ],
   "max": [
    0.8271192375666844,
    1.2556985916065213,
    -1.747020712275829
   ]
  },
  {
   "bufferView": 249,
   "componentType": 5126,
   "count": 10,
   "type": "VEC3"
  },
  {
   "bufferView": 250,
   "componentType": 5126,
   "count": 10,
   "type": "VEC2"
  },
  {
   "bufferView": 251,
   "componentType": 5123,
   "count": 36,
   "type": "SCALAR"
  },
  {
   "bufferView": 252,
   "componentType": 5126,
   "count": 27,
   "type": "VEC3",
   "min": [
    -0.7867296342776107,
    1.0124415867607157,
    -0.931348548609075
   ],
   "max": [
    -0.7863471765134192,
    1.1469004336214088,
    -0.8117170016103146
   ]
  },
  {
   "bufferView": 253,
   "componentType": 5126,
   "count": 27,
   "type": "VEC3"
  },
  {
   "bufferView": 254,
   "componentType": 5126,
   "count": 27,
   "type": "VEC2"
  },
  {
   "bufferView": 255,
   "componentType": 5123,
   "count": 105,
   "type": "SCALAR"
  },
  {
   "bufferView": 256,
   "componentType": 5126,
   "count": 39,
   "type": "VEC3",
   "min": [
    -0.08493689737460423,
    0.5600357188654885,
    -2.117134485826361
   ],
   "max": [
    0.10998079336645789,
    0.633155130178327,
    2.2336930174724525
   ]
  },
  {
   "bufferView": 257,
   "componentType": 5126,
   "count": 39,
   "type": "VEC3"
  },
  {
   "bufferView": 258,
   "componentType": 5126,
   "count": 39,
   "type": "VEC2"
  },
  {
   "bufferView": 259,
   "componentType": 5123,
   "count": 108,
   "type": "SCALAR"
  },
  {
   "bufferView": 260,
   "componentType": 5126,
   "count": 35,
   "type": "VEC3",
   "min": [
    -0.5859037148568431,
    1.1264702901398906,
    -0.5109947960211426
   ],
   "max": [
    -0.2086847865740832,
    1.2999482081301716,
    -0.3878916594261026
   ]
  },
  {
   "bufferView": 261,
   "componentType": 5126,
   "count": 35,
   "type": "VEC3"
  },
  {
   "bufferView": 262,
   "componentType": 5126,
   "count": 35,
   "type": "VEC2"
  },
  {
   "bufferView": 263,
   "componentType": 5123,
   "count": 198,
   "type": "SCALAR"
  },
  {
   "bufferView": 264,
   "componentType": 5126,
   "count": 8,
   "type": "VEC3",
   "min": [
    -0.41848126547609815,
    1.1854070776268495,
    -1.9109041946636078
   ],
   "max": [
    -0.39037253342172634,
    1.1940032297256744,
    -1.8771457359466435
   ]
  },
  {
   "bufferView": 265,
   "componentType": 5126,
   "count": 8,
   "type": "VEC3"
  },
  {
   "bufferView": 266,
   "componentType": 5126,
   "count": 8,
   "type": "VEC2"
  },
  {
   "bufferView": 267,
   "componentType": 5123,
   "count": 48,
   "type": "SCALAR"
  },
  {
   "bufferView": 268,
   "componentType": 5126,
   "count": 31,
   "type": "VEC3",
   "min": [
    0.7058348947872185,
    1.7698130908972616,
    -0.8401223602484366
   ],
   "max": [
    0.8420556572414056,
    1.8277627555039475,
    -0.462353646437825
   ]
  },
  {
   "bufferView": 269,
   "componentType": 5126,
   "count": 31,
   "type": "VEC3"
  },
  {
   "bufferView": 270,
   "componentType": 5126,
   "count": 31,
   "type": "VEC2"
  },
  {
   "bufferView": 271,
   "componentType": 5123,
   "count": 186,
   "type": "SCALAR"
  },
  {
   "bufferView": 272,
   "componentType": 5126,
   "count": 3,
   "type": "VEC3",
   "min": [
    0.7839565126155307,
    0.6917183564762677,
    -0.22819011824632654
   ],
   "max": [
    0.7855481652637427,
    0.7032655608055445,
    -0.1802483115859424
   ]
  },
  {
   "bufferView": 273,
   "componentType": 5126,
   "count": 3,
   "type": "VEC3"
  },
  {
   "bufferView": 274,
   "componentType": 5126,
   "count": 3,
   "type": "VEC2"
  },
  {
   "bufferView": 275,
   "componentType": 5123,
   "count": 3,
   "type": "SCALAR"
  }
 ],
 "bufferViews": [
  {
   "buffer": 0,
   "byteOffset": 0,
   "byteLength": 75612,
   "target": 34962
  },
  {
   "buffer": 0,
   "byteOffset": 75612,
   "byteLength": 75612,
   "target": 34962
  },
  {
   "buffer": 0,
   "byteOffset": 151224,
   "byteLength": 50408,
   "target": 34962
  },
  {
   "buffer": 0,
   "byteOffset": 201632,
   "byteLength": 152658,
   "target": 34963
  },
  {
   "buffer": 0,
   "byteOffset": 354292,
   "byteLength": 180,
   "target": 34962
  },
  {
   "buffer": 0,
   "byteOffset": 354472,
   "byteLength": 180,
   "target": 34962
  },
  {
   "buffer": 0,
   "byteOffset": 354652,
   "byteLength": 120,
   "target": 34962
  },
  {
   "buffer": 0,
   "byteOffset": 354772,
   "byteLength": 156,
   "target": 34963
  },
  {
   "buffer": 0,
   "byteOffset": 354928,
   "byteLength": 140136,
   "target": 34962
  },
  {
   "buffer": 0,
   "byteOffset": 495064,
   "byteLength": 140136,
   "target": 34962
  },
  {
   "buffer": 0,
   "byteOffset": 635200,
   "byteLength": 93424,
   "target": 34962
  },
  {
   "buffer": 0,
   "byteOffset": 728624,
   "byteLength": 176598,
   "target": 34963
  },
  {
   "buffer": 0,
   "byteOffset": 905224,
   "byteLength": 70008,
   "target": 34962
  },
  {
   "buffer": 0,
   "byteOffset": 975232,
   "byteLength": 70008,
   "target": 34962
  },
  {
   "buffer": 0,
   "byteOffset": 1045240,
   "byteLength": 46672,
   "target": 34962
  },
  {
   "buffer": 0,
   "byteOffset": 1091912,
   "byteLength": 74922,
   "target": 34963
  },
  {
   "buffer": 0,
   "byteOffset": 1166836,
   "byteLength": 13680,
   "target": 34962
  },
  {
   "buffer": 0,
   "byteOffset": 1180516,
   "byteLength": 13680,
   "target": 34962
  },
  {
   "buffer": 0,
   "byteOffset": 1194196,
   "byteLength": 9120,
   "target": 34962
  },
  {
   "buffer": 0,
   "byteOffset": 1203316,
   "byteLength": 21132,
   "target": 34963
  },
  {
   "buffer": 0,
   "byteOffset": 1224448,
   "byteLength": 4344,
   "target": 34962
  },
  {
   "buffer": 0,
   "byteOffset": 1228792,
   "byteLength": 4344,
   "target": 34962
  },
  {
   "buffer": 0,
   "byteOffset": 1233136,
   "byteLength": 2896,
   "target": 34962
  },
  {
   "buffer": 0,
   "byteOffset": 1236032,
   "byteLength": 14844,
   "target": 34963
  },
  {
   "buffer": 0,
   "byteOffset": 1250876,
   "byteLength": 38544,
   "target": 34962
  },
  {
   "buffer": 0,
   "byteOffset": 1289420,
   "byteLength": 38544,
   "target": 34962
  },
  {
   "buffer": 0,
   "byteOffset": 1327964,
   "byteLength": 25696,
   "target": 34962
  },
  {
   "buffer": 0,
   "byteOffset": 1353660,
   "byteLength": 39912,
   "target": 34963
  },
  {
   "buffer": 0,
   "byteOffset": 1393572,
   "byteLength": 1224,
   "target": 34962
  },
  {
   "buffer": 0,
   "byteOffset": 1394796,
   "byteLength": 1224,
   "target": 34962
  },
  {
   "buffer": 0,
   "byteOffset": 1396020,
   "byteLength": 816,
   "target": 34962
  },
  {
   "buffer": 0,
   "byteOffset": 1396836,
   "byteLength": 792,
   "target": 34963
  },
  {
   "buffer": 0,
   "byteOffset": 1397628,
   "byteLength": 30144,
   "target": 34962
  },
  {
   "buffer": 0,
   "byteOffset": 1427772,
   "byteLength": 30144,
   "target": 34962
  },
  {
   "buffer": 0,
   "byteOffset": 1457916,
   "byteLength": 20096,
   "target": 34962
  },
  {
   "buffer": 0,
   "byteOffset": 1478012,
   "byteLength": 30300,
   "target": 34963
  },
  {
   "buffer": 0,
   "byteOffset": 1508312,
   "byteLength": 12600,
   "target": 34962
  },
  {
   "buffer": 0,
   "byteOffset": 1520912,
   "byteLength": 12600,
   "target": 34962
  },
  {
   "buffer": 0,
   "byteOffset": 1533512,
   "byteLength": 8400,
   "target": 34962
  },
  {
   "buffer": 0,
   "byteOffset": 1541912,
   "byteLength": 19488,
   "target": 34963
  },
  {
   "buffer": 0,
   "byteOffset": 1561400,
   "byteLength": 2136,
   "target": 34962
  },
  {
   "buffer": 0,
   "byteOffset": 1563536,
   "byteLength": 2136,
   "target": 34962
  },
  {
   "buffer": 0,
   "byteOffset": 1565672,
   "byteLength": 1424,
   "target": 34962
  },
  {
   "buffer": 0,
   "byteOffset": 1567096,
   "byteLength": 2292,
   "target": 34963
  },
  {
   "buffer": 0,
   "byteOffset": 1569388,
   "byteLength": 4116,
   "target": 34962
  },
  {
   "buffer": 0,
   "byteOffset": 1573504,
   "byteLength": 4116,
   "target": 34962
  },
  {
   "buffer": 0,
   "byteOffset": 1577620,
   "byteLength": 2744,
   "target": 34962
  },
  {
   "buffer": 0,
   "byteOffset": 1580364,
   "byteLength": 4584,
   "target": 34963
  },
  {
   "buffer": 0,
   "byteOffset": 1584948,
   "byteLength": 5472,
   "target": 34962
  },
  {
   "buffer": 0,
   "byteOffset": 1590420,
   "byteLength": 5472,
   "target": 34962
  },
  {
   "buffer": 0,
   "byteOffset": 1595892,
   "byteLength": 3648,
   "target": 34962
  },
  {
   "buffer": 0,
   "byteOffset": 1599540,
   "byteLength": 9492,
   "target": 34963
  },
  {
   "buffer": 0,
   "byteOffset": 1609032,
   "byteLength": 1068,
   "target": 34962
  },
  {
   "buffer": 0,
   "byteOffset": 1610100,
   "byteLength": 1068,
   "target": 34962
  },
  {
   "buffer": 0,
   "byteOffset": 1611168,
   "byteLength": 712,
   "target": 34962
  },
  {
   "buffer": 0,
   "byteOffset": 1611880,
   "byteLength": 564,
   "target": 34963
  },
  {
   "buffer": 0,
   "byteOffset": 1612444,
   "byteLength": 1476,
   "target": 34962
  },
  {
   "buffer": 0,
   "byteOffset": 1613920,
   "byteLength": 1476,
   "target": 34962
  },
  {
   "buffer": 0,
   "byteOffset": 1615396,
   "byteLength": 984,
   "target": 34962
  },
  {
   "buffer": 0,
   "byteOffset": 1616380,
   "byteLength": 1380,
   "target": 34963
  },
  {
   "buffer": 0,
   "byteOffset": 1617760,
   "byteLength": 1488,
   "target": 34962
  },
  {
   "buffer": 0,
   "byteOffset": 1619248,
   "byteLength": 1488,
   "target": 34962
  },
  {
   "buffer": 0,
   "byteOffset": 1620736,
   "byteLength": 992,
   "target": 34962
  },
  {
   "buffer": 0,
   "byteOffset": 1621728,
   "byteLength": 1056,
   "target": 34963
  },
  {
   "buffer": 0,
   "byteOffset": 1622784,
   "byteLength": 3984,
   "target": 34962
  },
  {
   "buffer": 0,
   "byteOffset": 1626768,
   "byteLength": 3984,
   "target": 34962
  },
  {
   "buffer": 0,
   "byteOffset": 1630752,
   "byteLength": 2656,
   "target": 34962
  },
  {
   "buffer": 0,
   "byteOffset": 1633408,
   "byteLength": 4116,
   "target": 34963
  },
  {
   "buffer": 0,
   "byteOffset": 1637524,
   "byteLength": 912,
   "target": 34962
  },
  {
   "buffer": 0,
   "byteOffset": 1638436,
   "byteLength": 912,
   "target": 34962
  },
  {
   "buffer": 0,
   "byteOffset": 1639348,
   "byteLength": 608,
   "target": 34962
  },
  {
   "buffer": 0,
   "byteOffset": 1639956,
   "byteLength": 888,
   "target": 34963
  },
  {
   "buffer": 0,
   "byteOffset": 1640844,
   "byteLength": 6372,
   "target": 34962
  },
  {
   "buffer": 0,
   "byteOffset": 1647216,
   "byteLength": 6372,
   "target": 34962
  },
  {
   "buffer": 0,
   "byteOffset": 1653588,
   "byteLength": 4248,
   "target": 34962
  },
  {
   "buffer": 0,
   "byteOffset": 1657836,
   "byteLength": 6288,
   "target": 34963
  },
  {
   "buffer": 0,
   "byteOffset": 1664124,
   "byteLength": 11388,
   "target": 34962
  },
  {
   "buffer": 0,
   "byteOffset": 1675512,
   "byteLength": 11388,
   "target": 34962
  },
  {
   "buffer": 0,
   "byteOffset": 1686900,
   "byteLength": 7592,
   "target": 34962
  },
  {
   "buffer": 0,
   "byteOffset": 1694492,
   "byteLength": 14544,
   "target": 34963
  },
  {
   "buffer": 0,
   "byteOffset": 1709036,
   "byteLength": 16128,
   "target": 34962
  },
  {
   "buffer": 0,
   "byteOffset": 1725164,
   "byteLength": 16128,
   "target": 34962
  },
  {
   "buffer": 0,
   "byteOffset": 1741292,
   "byteLength": 10752,
   "target": 34962
  },
  {
   "buffer": 0,
   "byteOffset": 1752044,
   "byteLength": 22272,
   "target": 34963
  },
  {
   "buffer": 0,
   "byteOffset": 1774316,
   "byteLength": 5400,
   "target": 34962
  },
  {
   "buffer": 0,
   "byteOffset": 1779716,
   "byteLength": 5400,
   "target": 34962
  },
  {
   "buffer": 0,
   "byteOffset": 1785116,
   "byteLength": 3600,
   "target": 34962
  },
  {
   "buffer": 0,
   "byteOffset": 1788716,
   "byteLength": 9012,
   "target": 34963
  },
  {
   "buffer": 0,
   "byteOffset": 1797728,
   "byteLength": 2772,
   "target": 34962
  },
  {
   "buffer": 0,
   "byteOffset": 1800500,
   "byteLength": 2772,
   "target": 34962
  },
  {
   "buffer": 0,
   "byteOffset": 1803272,
   "byteLength": 1848,
   "target": 34962
  },
  {
   "buffer": 0,
   "byteOffset": 1805120,
   "byteLength": 2436,
   "target": 34963
  },
  {
   "buffer": 0,
   "byteOffset": 1807556,
   "byteLength": 1848,
   "target": 34962
  },
  {
   "buffer": 0,
   "byteOffset": 1809404,
   "byteLength": 1848,
   "target": 34962
  },
  {
   "buffer": 0,
   "byteOffset": 1811252,
   "byteLength": 1232,
   "target": 34962
  },
  {
   "buffer": 0,
   "byteOffset": 1812484,
   "byteLength": 1476,
   "target": 34963
  },
  {
   "buffer": 0,
   "byteOffset": 1813960,
   "byteLength": 8964,
   "target": 34962
  },
  {
   "buffer": 0,
   "byteOffset": 1822924,
   "byteLength": 8964,
   "target": 34962
  },
  {
   "buffer": 0,
   "byteOffset": 1831888,
   "byteLength": 5976,
   "target": 34962
  },
  {
   "buffer": 0,
   "byteOffset": 1837864,
   "byteLength": 12696,
   "target": 34963
  },
  {
   "buffer": 0,
   "byteOffset": 1850560,
   "byteLength": 3432,
   "target": 34962
  },
  {
   "buffer": 0,
   "byteOffset": 1853992,
   "byteLength": 3432,
   "target": 34962
  },
  {
   "buffer": 0,
   "byteOffset": 1857424,
   "byteLength": 2288,
   "target": 34962
  },
  {
   "buffer": 0,
   "byteOffset": 1859712,
   "byteLength": 3840,
   "target": 34963
  },
  {
   "buffer": 0,
   "byteOffset": 1863552,
   "byteLength": 35328,
   "target": 34962
  },
  {
   "buffer": 0,
   "byteOffset": 1898880,
   "byteLength": 35328,
   "target": 34962
  },
  {
   "buffer": 0,
   "byteOffset": 1934208,
   "byteLength": 23552,
   "target": 34962
  },
  {
   "buffer": 0,
   "byteOffset": 1957760,
   "byteLength": 52824,
   "target": 34963
  },
  {
   "buffer": 0,
   "byteOffset": 2010584,
   "byteLength": 2580,
   "target": 34962
  },
  {
   "buffer": 0,
   "byteOffset": 2013164,
   "byteLength": 2580,
   "target": 34962
  },
  {
   "buffer": 0,
   "byteOffset": 2015744,
   "byteLength": 1720,
   "target": 34962
  },
  {
   "buffer": 0,
   "byteOffset": 2017464,
   "byteLength": 2784,
   "target": 34963
  },
  {
   "buffer": 0,
   "byteOffset": 2020248,
   "byteLength": 1296,
   "target": 34962
  },
  {
   "buffer": 0,
   "byteOffset": 2021544,
   "byteLength": 1296,
   "target": 34962
  },
  {
   "buffer": 0,
   "byteOffset": 2022840,
   "byteLength": 864,
   "target": 34962
  },
  {
   "buffer": 0,
   "byteOffset": 2023704,
   "byteLength": 1032,
   "target": 34963
  },
  {
   "buffer": 0,
   "byteOffset": 2024736,
   "byteLength": 14664,
   "target": 34962
  },
  {
   "buffer": 0,
   "byteOffset": 2039400,
   "byteLength": 14664,
   "target": 34962
  },
  {
   "buffer": 0,
   "byteOffset": 2054064,
   "byteLength": 9776,
   "target": 34962
  },
  {
   "buffer": 0,
   "byteOffset": 2063840,
   "byteLength": 14244,
   "target": 34963
  },
  {
   "buffer": 0,
   "byteOffset": 2078084,
   "byteLength": 8508,
   "target": 34962
  },
  {
   "buffer": 0,
   "byteOffset": 2086592,
   "byteLength": 8508,
   "target": 34962
  },
  {
   "buffer": 0,
   "byteOffset": 2095100,
   "byteLength": 5672,
   "target": 34962
  },
  {
   "buffer": 0,
   "byteOffset": 2100772,
   "byteLength": 8508,
   "target": 34963
  },
  {
   "buffer": 0,
   "byteOffset": 2109280,
   "byteLength": 3204,
   "target": 34962
  },
  {
   "buffer": 0,
   "byteOffset": 2112484,
   "byteLength": 3204,
   "target": 34962
  },
  {
   "buffer": 0,
   "byteOffset": 2115688,
   "byteLength": 2136,
   "target": 34962
  },
  {
   "buffer": 0,
   "byteOffset": 2117824,
   "byteLength": 4200,
   "target": 34963
  },
  {
   "buffer": 0,
   "byteOffset": 2122024,
   "byteLength": 3204,
   "target": 34962
  },
  {
   "buffer": 0,
   "byteOffset": 2125228,
   "byteLength": 3204,
   "target": 34962
  },
  {
   "buffer": 0,
   "byteOffset": 2128432,
   "byteLength": 2136,
   "target": 34962
  },
  {
   "buffer": 0,
   "byteOffset": 2130568,
   "byteLength": 6324,
   "target": 34963
  },
  {
   "buffer": 0,
   "byteOffset": 2136892,
   "byteLength": 816,
   "target": 34962
  },
  {
   "buffer": 0,
   "byteOffset": 2137708,
   "byteLength": 816,
   "target": 34962
  },
  {
   "buffer": 0,
   "byteOffset": 2138524,
   "byteLength": 544,
   "target": 34962
  },
  {
   "buffer": 0,
   "byteOffset": 2139068,
   "byteLength": 438,
   "target": 34963
  },
  {
   "buffer": 0,
   "byteOffset": 2139508,
   "byteLength": 22668,
   "target": 34962
  },
  {
   "buffer": 0,
   "byteOffset": 2162176,
   "byteLength": 22668,
   "target": 34962
  },
  {
   "buffer": 0,
   "byteOffset": 2184844,
   "byteLength": 15112,
   "target": 34962
  },
  {
   "buffer": 0,
   "byteOffset": 2199956,
   "byteLength": 22740,
   "target": 34963
  },
  {
   "buffer": 0,
   "byteOffset": 2222696,
   "byteLength": 552,
   "target": 34962
  },
  {
   "buffer": 0,
   "byteOffset": 2223248,
   "byteLength": 552,
   "target": 34962
  },
  {
   "buffer": 0,
   "byteOffset": 2223800,
   "byteLength": 368,
   "target": 34962
  },
  {
   "buffer": 0,
   "byteOffset": 2224168,
   "byteLength": 456,
   "target": 34963
  },
  {
   "buffer": 0,
   "byteOffset": 2224624,
   "byteLength": 2352,
   "target": 34962
  },
  {
   "buffer": 0,
   "byteOffset": 2226976,
   "byteLength": 2352,
   "target": 34962
  },
  {
   "buffer": 0,
   "byteOffset": 2229328,
   "byteLength": 1568,
   "target": 34962
  },
  {
   "buffer": 0,
   "byteOffset": 2230896,
   "byteLength": 2256,
   "target": 34963
  },
  {
   "buffer": 0,
   "byteOffset": 2233152,
   "byteLength": 1812,
   "target": 34962
  },
  {
   "buffer": 0,
   "byteOffset": 2234964,
   "byteLength": 1812,
   "target": 34962
  },
  {
   "buffer": 0,
   "byteOffset": 2236776,
   "byteLength": 1208,
   "target": 34962
  },
  {
   "buffer": 0,
   "byteOffset": 2237984,
   "byteLength": 1542,
   "target": 34963
  },
  {
   "buffer": 0,
   "byteOffset": 2239528,
   "byteLength": 5940,
   "target": 34962
  },
  {
   "buffer": 0,
   "byteOffset": 2245468,
   "byteLength": 5940,
   "target": 34962
  },
  {
   "buffer": 0,
   "byteOffset": 2251408,
   "byteLength": 3960,
   "target": 34962
  },
  {
   "buffer": 0,
   "byteOffset": 2255368,
   "byteLength": 5940,
   "target": 34963
  },
  {
   "buffer": 0,
   "byteOffset": 2261308,
   "byteLength": 6108,
   "target": 34962
  },
  {
   "buffer": 0,
   "byteOffset": 2267416,
   "byteLength": 6108,
   "target": 34962
  },
  {
   "buffer": 0,
   "byteOffset": 2273524,
   "byteLength": 4072,
   "target": 34962
  },
  {
   "buffer": 0,
   "byteOffset": 2277596,
   "byteLength": 6144,
   "target": 34963
  },
  {
   "buffer": 0,
   "byteOffset": 2283740,
   "byteLength": 3396,
   "target": 34962
  },
  {
   "buffer": 0,
   "byteOffset": 2287136,
   "byteLength": 3396,
   "target": 34962
  },
  {
   "buffer": 0,
   "byteOffset": 2290532,
   "byteLength": 2264,
   "target": 34962
  },
  {
   "buffer": 0,
   "byteOffset": 2292796,
   "byteLength": 3240,
   "target": 34963
  },
  {
   "buffer": 0,
   "byteOffset": 2296036,
   "byteLength": 1560,
   "target": 34962
  },
  {
   "buffer": 0,
   "byteOffset": 2297596,
   "byteLength": 1560,
   "target": 34962
  },
  {
   "buffer": 0,
   "byteOffset": 2299156,
   "byteLength": 1040,
   "target": 34962
  },
  {
   "buffer": 0,
   "byteOffset": 2300196,
   "byteLength": 1476,
   "target": 34963
  },
  {
   "buffer": 0,
   "byteOffset": 2301672,
   "byteLength": 1788,
   "target": 34962
  },
  {
   "buffer": 0,
   "byteOffset": 2303460,
   "byteLength": 1788,
   "target": 34962
  },
  {
   "buffer": 0,
   "byteOffset": 2305248,
   "byteLength": 1192,
   "target": 34962
  },
  {
   "buffer": 0,
   "byteOffset": 2306440,
   "byteLength": 1116,
   "target": 34963
  },
  {
   "buffer": 0,
   "byteOffset": 2307556,
   "byteLength": 3744,
   "target": 34962
  },
  {
   "buffer": 0,
   "byteOffset": 2311300,
   "byteLength": 3744,
   "target": 34962
  },
  {
   "buffer": 0,
   "byteOffset": 2315044,
   "byteLength": 2496,
   "target": 34962
  },
  {
   "buffer": 0,
   "byteOffset": 2317540,
   "byteLength": 6360,
   "target": 34963
  },
  {
   "buffer": 0,
   "byteOffset": 2323900,
   "byteLength": 852,
   "target": 34962
  },
  {
   "buffer": 0,
   "byteOffset": 2324752,
   "byteLength": 852,
   "target": 34962
  },
  {
   "buffer": 0,
   "byteOffset": 2325604,
   "byteLength": 568,
   "target": 34962
  },
  {
   "buffer": 0,
   "byteOffset": 2326172,
   "byteLength": 1032,
   "target": 34963
  },
  {
   "buffer": 0,
   "byteOffset": 2327204,
   "byteLength": 2232,
   "target": 34962
  },
  {
   "buffer": 0,
   "byteOffset": 2329436,
   "byteLength": 2232,
   "target": 34962
  },
  {
   "buffer": 0,
   "byteOffset": 2331668,
   "byteLength": 1488,
   "target": 34962
  },
  {
   "buffer": 0,
   "byteOffset": 2333156,
   "byteLength": 2160,
   "target": 34963
  },
  {
   "buffer": 0,
   "byteOffset": 2335316,
   "byteLength": 3396,
   "target": 34962
  },
  {
   "buffer": 0,
   "byteOffset": 2338712,
   "byteLength": 3396,
   "target": 34962
  },
  {
   "buffer": 0,
   "byteOffset": 2342108,
   "byteLength": 2264,
   "target": 34962
  },
  {
   "buffer": 0,
   "byteOffset": 2344372,
   "byteLength": 3468,
   "target": 34963
  },
  {
   "buffer": 0,
   "byteOffset": 2347840,
   "byteLength": 1944,
   "target": 34962
  },
  {
   "buffer": 0,
   "byteOffset": 2349784,
   "byteLength": 1944,
   "target": 34962
  },
  {
   "buffer": 0,
   "byteOffset": 2351728,
   "byteLength": 1296,
   "target": 34962
  },
  {
   "buffer": 0,
   "byteOffset": 2353024,
   "byteLength": 2184,
   "target": 34963
  },
  {
   "buffer": 0,
   "byteOffset": 2355208,
   "byteLength": 1260,
   "target": 34962
  },
  {
   "buffer": 0,
   "byteOffset": 2356468,
   "byteLength": 1260,
   "target": 34962
  },
  {
   "buffer": 0,
   "byteOffset": 2357728,
   "byteLength": 840,
   "target": 34962
  },
  {
   "buffer": 0,
   "byteOffset": 2358568,
   "byteLength": 1212,
   "target": 34963
  },
  {
   "buffer": 0,
   "byteOffset": 2359780,
   "byteLength": 3636,
   "target": 34962
  },
  {
   "buffer": 0,
   "byteOffset": 2363416,
   "byteLength": 3636,
   "target": 34962
  },
  {
   "buffer": 0,
   "byteOffset": 2367052,
   "byteLength": 2424,
   "target": 34962
  },
  {
   "buffer": 0,
   "byteOffset": 2369476,
   "byteLength": 3612,
   "target": 34963
  },
  {
   "buffer": 0,
   "byteOffset": 2373088,
   "byteLength": 1212,
   "target": 34962
  },
  {
   "buffer": 0,
   "byteOffset": 2374300,
   "byteLength": 1212,
   "target": 34962
  },
  {
   "buffer": 0,
   "byteOffset": 2375512,
   "byteLength": 808,
   "target": 34962
  },
  {
   "buffer": 0,
   "byteOffset": 2376320,
   "byteLength": 1164,
   "target": 34963
  },
  {
   "buffer": 0,
   "byteOffset": 2377484,
   "byteLength": 1272,
   "target": 34962
  },
  {
   "buffer": 0,
   "byteOffset": 2378756,
   "byteLength": 1272,
   "target": 34962
  },
  {
   "buffer": 0,
   "byteOffset": 2380028,
   "byteLength": 848,
   "target": 34962
  },
  {
   "buffer": 0,
   "byteOffset": 2380876,
   "byteLength": 1248,
   "target": 34963
  },
  {
   "buffer": 0,
   "byteOffset": 2382124,
   "byteLength": 2832,
   "target": 34962
  },
  {
   "buffer": 0,
   "byteOffset": 2384956,
   "byteLength": 2832,
   "target": 34962
  },
  {
   "buffer": 0,
   "byteOffset": 2387788,
   "byteLength": 1888,
   "target": 34962
  },
  {
   "buffer": 0,
   "byteOffset": 2389676,
   "byteLength": 2736,
   "target": 34963
  },
  {
   "buffer": 0,
   "byteOffset": 2392412,
   "byteLength": 6732,
   "target": 34962
  },
  {
   "buffer": 0,
   "byteOffset": 2399144,
   "byteLength": 6732,
   "target": 34962
  },
  {
   "buffer": 0,
   "byteOffset": 2405876,
   "byteLength": 4488,
   "target": 34962
  },
  {
   "buffer": 0,
   "byteOffset": 2410364,
   "byteLength": 9504,
   "target": 34963
  },
  {
   "buffer": 0,
   "byteOffset": 2419868,
   "byteLength": 216,
   "target": 34962
  },
  {
   "buffer": 0,
   "byteOffset": 2420084,
   "byteLength": 216,
   "target": 34962
  },
  {
   "buffer": 0,
   "byteOffset": 2420300,
   "byteLength": 144,
   "target": 34962
  },
  {
   "buffer": 0,
   "byteOffset": 2420444,
   "byteLength": 144,
   "target": 34963
  },
  {
   "buffer": 0,
   "byteOffset": 2420588,
   "byteLength": 216,
   "target": 34962
  },
  {
   "buffer": 0,
   "byteOffset": 2420804,
   "byteLength": 216,
   "target": 34962
  },
  {
   "buffer": 0,
   "byteOffset": 2421020,
   "byteLength": 144,
   "target": 34962
  },
  {
   "buffer": 0,
   "byteOffset": 2421164,
   "byteLength": 192,
   "target": 34963
  },
  {
   "buffer": 0,
   "byteOffset": 2421356,
   "byteLength": 588,
   "target": 34962
  },
  {
   "buffer": 0,
   "byteOffset": 2421944,
   "byteLength": 588,
   "target": 34962
  },
  {
   "buffer": 0,
   "byteOffset": 2422532,
   "byteLength": 392,
   "target": 34962
  },
  {
   "buffer": 0,
   "byteOffset": 2422924,
   "byteLength": 492,
   "target": 34963
  },
  {
   "buffer": 0,
   "byteOffset": 2423416,
   "byteLength": 2184,
   "target": 34962
  },
  {
   "buffer": 0,
   "byteOffset": 2425600,
   "byteLength": 2184,
   "target": 34962
  },
  {
   "buffer": 0,
   "byteOffset": 2427784,
   "byteLength": 1456,
   "target": 34962
  },
  {
   "buffer": 0,
   "byteOffset": 2429240,
   "byteLength": 2160,
   "target": 34963
  },
  {
   "buffer": 0,
   "byteOffset": 2431400,
   "byteLength": 1512,
   "target": 34962
  },
  {
   "buffer": 0,
   "byteOffset": 2432912,
   "byteLength": 1512,
   "target": 34962
  },
  {
   "buffer": 0,
   "byteOffset": 2434424,
   "byteLength": 1008,
   "target": 34962
  },
  {
   "buffer": 0,
   "byteOffset": 2435432,
   "byteLength": 1254,
   "target": 34963
  },
  {
   "buffer": 0,
   "byteOffset": 2436688,
   "byteLength": 600,
   "target": 34962
  },
  {
   "buffer": 0,
   "byteOffset": 2437288,
   "byteLength": 600,
   "target": 34962
  },
  {
   "buffer": 0,
   "byteOffset": 2437888,
   "byteLength": 400,
   "target": 34962
  },
  {
   "buffer": 0,
   "byteOffset": 2438288,
   "byteLength": 576,
   "target": 34963
  },
  {
   "buffer": 0,
   "byteOffset": 2438864,
   "byteLength": 3204,
   "target": 34962
  },
  {
   "buffer": 0,
   "byteOffset": 2442068,
   "byteLength": 3204,
   "target": 34962
  },
  {
   "buffer": 0,
   "byteOffset": 2445272,
   "byteLength": 2136,
   "target": 34962
  },
  {
   "buffer": 0,
   "byteOffset": 2447408,
   "byteLength": 3180,
   "target": 34963
  },
  {
   "buffer": 0,
   "byteOffset": 2450588,
   "byteLength": 1212,
   "target": 34962
  },
  {
   "buffer": 0,
   "byteOffset": 2451800,
   "byteLength": 1212,
   "target": 34962
  },
  {
   "buffer": 0,
   "byteOffset": 2453012,
   "byteLength": 808,
   "target": 34962
  },
  {
   "buffer": 0,
   "byteOffset": 2453820,
   "byteLength": 930,
   "target": 34963
  },
  {
   "buffer": 0,
   "byteOffset": 2454752,
   "byteLength": 120,
   "target": 34962
  },
  {
   "buffer": 0,
   "byteOffset": 2454872,
   "byteLength": 120,
   "target": 34962
  },
  {
   "buffer": 0,
   "byteOffset": 2454992,
   "byteLength": 80,
   "target": 34962
  },
  {
   "buffer": 0,
   "byteOffset": 2455072,
   "byteLength": 72,
   "target": 34963
  },
  {
   "buffer": 0,
   "byteOffset": 2455144,
   "byteLength": 324,
   "target": 34962
  },
  {
   "buffer": 0,
   "byteOffset": 2455468,
   "byteLength": 324,
   "target": 34962
  },
  {
   "buffer": 0,
   "byteOffset": 2455792,
   "byteLength": 216,
   "target": 34962
  },
  {
   "buffer": 0,
   "byteOffset": 2456008,
   "byteLength": 210,
   "target": 34963
  },
  {
   "buffer": 0,
   "byteOffset": 2456220,
   "byteLength": 468,
   "target": 34962
  },
  {
   "buffer": 0,
   "byteOffset": 2456688,
   "byteLength": 468,
   "target": 34962
  },
  {
   "buffer": 0,
   "byteOffset": 2457156,
   "byteLength": 312,
   "target": 34962
  },
  {
   "buffer": 0,
   "byteOffset": 2457468,
   "byteLength": 216,
   "target": 34963
  },
  {
   "buffer": 0,
   "byteOffset": 2457684,
   "byteLength": 420,
   "target": 34962
  },
  {
   "buffer": 0,
   "byteOffset": 2458104,
   "byteLength": 420,
   "target": 34962
  },
  {
   "buffer": 0,
   "byteOffset": 2458524,
   "byteLength": 280,
   "target": 34962
  },
  {
   "buffer": 0,
   "byteOffset": 2458804,
   "byteLength": 396,
   "target": 34963
  },
  {
   "buffer": 0,
   "byteOffset": 2459200,
   "byteLength": 96,
   "target": 34962
  },
  {
   "buffer": 0,
   "byteOffset": 2459296,
   "byteLength": 96,
   "target": 34962
  },
  {
   "buffer": 0,
   "byteOffset": 2459392,
   "byteLength": 64,
   "target": 34962
  },
  {
   "buffer": 0,
   "byteOffset": 2459456,
   "byteLength": 96,
   "target": 34963
  },
  {
   "buffer": 0,
   "byteOffset": 2459552,
   "byteLength": 372,
   "target": 34962
  },
  {
   "buffer": 0,
   "byteOffset": 2459924,
   "byteLength": 372,
   "target": 34962
  },
  {
   "buffer": 0,
   "byteOffset": 2460296,
   "byteLength": 248,
   "target": 34962
  },
  {
   "buffer": 0,
   "byteOffset": 2460544,
   "byteLength": 372,
   "target": 34963
  },
  {
   "buffer": 0,
   "byteOffset": 2460916,
   "byteLength": 36,
   "target": 34962
  },
  {
   "buffer": 0,
   "byteOffset": 2460952,
   "byteLength": 36,
   "target": 34962
  },
  {
   "buffer": 0,
   "byteOffset": 2460988,
   "byteLength": 24,
   "target": 34962
  },
  {
   "buffer": 0,
   "byteOffset": 2461012,
   "byteLength": 6,
   "target": 34963
  }
 ],
 "buffers": [
  {
   "uri": "body.bin",
   "byteLength": 2461018
  }
 ]
}