{
 "asset": {
  "version": "2.0",
  "generator": "cargame defender_to_gltf.py"
 },
 "scene": 0,
 "scenes": [
  {
   "nodes": [
    0
   ]
  }
 ],
 "nodes": [
  {
   "name": "hub_rf",
   "mesh": 0
  }
 ],
 "meshes": [
  {
   "name": "hub_rf",
   "primitives": [
    {
     "attributes": {
      "POSITION": 0,
      "NORMAL": 1,
      "TEXCOORD_0": 2
     },
     "indices": 3,
     "material": 0
    }
   ]
  }
 ],
 "materials": [
  {
   "name": "hub_rf_mat",
   "pbrMetallicRoughness": {
    "baseColorFactor": [
     0.55,
     0.58,
     0.54,
     1.0
    ],
    "metallicFactor": 0.35,
    "roughnessFactor": 0.45
   },
   "doubleSided": false
  }
 ],
 "accessors": [
  {
   "bufferView": 0,
   "componentType": 5126,
   "count": 8835,
   "type": "VEC3",
   "min": [
    -0.21815736147192824,
    -0.4436183169613142,
    -0.4481044126685994
   ],
   "max": [
    0.24313828120930736,
    0.4452780311605324,
    0.4459925136295751
   ]
  },
  {
   "bufferView": 1,
   "componentType": 5126,
   "count": 8835,
   "type": "VEC3"
  },
  {
   "bufferView": 2,
   "componentType": 5126,
   "count": 8835,
   "type": "VEC2"
  },
  {
   "bufferView": 3,
   "componentType": 5123,
   "count": 63522,
   "type": "SCALAR"
  }
 ],
 "bufferViews": [
  {
   "buffer": 0,
   "byteOffset": 0,
   "byteLength": 106020,
   "target": 34962
  },
  {
   "buffer": 0,
   "byteOffset": 106020,
   "byteLength": 106020,
   "target": 34962
  },
  {
   "buffer": 0,
   "byteOffset": 212040,
   "byteLength": 70680,
   "target": 34962
  },
  {
   "buffer": 0,
   "byteOffset": 282720,
   "byteLength": 127044,
   "target": 34963
  }
 ],
 "buffers": [
  {
   "uri": "hub_rf.bin",
   "byteLength": 409764
  }
 ]
}