{
 "asset": {
  "version": "2.0",
  "generator": "cargame defender_to_gltf.py"
 },
 "scene": 0,
 "scenes": [
  {
   "nodes": [
    0
   ]
  }
 ],
 "nodes": [
  {
   "name": "hub_lf",
   "mesh": 0
  }
 ],
 "meshes": [
  {
   "name": "hub_lf",
   "primitives": [
    {
     "attributes": {
      "POSITION": 0,
      "NORMAL": 1,
      "TEXCOORD_0": 2
     },
     "indices": 3,
     "material": 0
    },
    {
     "attributes": {
      "POSITION": 4,
      "NORMAL": 5,
      "TEXCOORD_0": 6
     },
     "indices": 7,
     "material": 1
    },
    {
     "attributes": {
      "POSITION": 8,
      "NORMAL": 9,
      "TEXCOORD_0": 10
     },
     "indices": 11,
     "material": 2
    },
    {
     "attributes": {
      "POSITION": 12,
      "NORMAL": 13,
      "TEXCOORD_0": 14
     },
     "indices": 15,
     "material": 3
    },
    {
     "attributes": {
      "POSITION": 16,
      "NORMAL": 17,
      "TEXCOORD_0": 18
     },
     "indices": 19,
     "material": 4
    }
   ]
  }
 ],
 "materials": [
  {
   "name": "Material #1979",
   "pbrMetallicRoughness": {
    "baseColorFactor": [
     0.16,
     0.22,
     0.17,
     1.0
    ],
    "metallicFactor": 0.35,
    "roughnessFactor": 0.34
   },
   "doubleSided": false
  },
  {
   "name": "Material #1980",
   "pbrMetallicRoughness": {
    "baseColorFactor": [
     0.075,
     0.075,
     0.08,
     1.0
    ],
    "metallicFactor": 0.55,
    "roughnessFactor": 0.72
   },
   "doubleSided": false
  },
  {
   "name": "Material #1981",
   "pbrMetallicRoughness": {
    "baseColorFactor": [
     0.075,
     0.075,
     0.08,
     1.0
    ],
    "metallicFactor": 0.55,
    "roughnessFactor": 0.72
   },
   "doubleSided": false
  },
  {
   "name": "Material #1982",
   "pbrMetallicRoughness": {
    "baseColorFactor": [
     0.075,
     0.075,
     0.08,
     1.0
    ],
    "metallicFactor": 0.55,
    "roughnessFactor": 0.72
   },
   "doubleSided": false
  },
  {
   "name": "Material #1961",
   "pbrMetallicRoughness": {
    "baseColorFactor": [
     0.075,
     0.075,
     0.08,
     1.0
    ],
    "metallicFactor": 0.55,
    "roughnessFactor": 0.72
   },
   "doubleSided": false
  }
 ],
 "accessors": [
  {
   "bufferView": 0,
   "componentType": 5126,
   "count": 5599,
   "type": "VEC3",
   "min": [
    -0.21933495355877283,
    -0.4436183378546227,
    -0.4481225817140966
   ],
   "max": [
    0.21820131506956708,
    0.445278044593048,
    0.446003230509528
   ]
  },
  {
   "bufferView": 1,
   "componentType": 5126,
   "count": 5599,
   "type": "VEC3"
  },
  {
   "bufferView": 2,
   "componentType": 5126,
   "count": 5599,
   "type": "VEC2"
  },
  {
   "bufferView": 3,
   "componentType": 5123,
   "count": 32652,
   "type": "SCALAR"
  },
  {
   "bufferView": 4,
   "componentType": 5126,
   "count": 1568,
   "type": "VEC3",
   "min": [
    -0.24314831548967986,
    -0.2506268248125769,
    -0.24771642747951317
   ],
   "max": [
    -0.11069087273149114,
    0.25066366620625374,
    0.25259790276268523
   ]
  },
  {
   "bufferView": 5,
   "componentType": 5126,
   "count": 1568,
   "type": "VEC3"
  },
  {
   "bufferView": 6,
   "componentType": 5126,
   "count": 1568,
   "type": "VEC2"
  },
  {
   "bufferView": 7,
   "componentType": 5123,
   "count": 14112,
   "type": "SCALAR"
  },
  {
   "bufferView": 8,
   "componentType": 5126,
   "count": 335,
   "type": "VEC3",
   "min": [
    -0.2038068817030144,
    -0.14477965646151483,
    -0.13397969557494283
   ],
   "max": [
    -0.09845309959834941,
    0.11763161920200832,
    0.14164984806953715
   ]
  },
  {
   "bufferView": 9,
   "componentType": 5126,
   "count": 335,
   "type": "VEC3"
  },
  {
   "bufferView": 10,
   "componentType": 5126,
   "count": 335,
   "type": "VEC2"
  },
  {
   "bufferView": 11,
   "componentType": 5123,
   "count": 3138,
   "type": "SCALAR"
  },
  {
   "bufferView": 12,
   "componentType": 5126,
   "count": 1217,
   "type": "VEC3",
   "min": [
    -0.1959257305740546,
    -0.1979218942009145,
    -0.1873054333032984
   ],
   "max": [
    -0.10825475529552604,
    0.19758413531489893,
    0.19450004664287315
   ]
  },
  {
   "bufferView": 13,
   "componentType": 5126,
   "count": 1217,
   "type": "VEC3"
  },
  {
   "bufferView": 14,
   "componentType": 5126,
   "count": 1217,
   "type": "VEC2"
  },
  {
   "bufferView": 15,
   "componentType": 5123,
   "count": 11790,
   "type": "SCALAR"
  },
  {
   "bufferView": 16,
   "componentType": 5126,
   "count": 315,
   "type": "VEC3",
   "min": [
    -0.005555622047214492,
    -0.2623648575114274,
    -0.2632870478037017
   ],
   "max": [
    0.18103863367061757,
    0.20516431363550014,
    0.25478439936616026
   ]
  },
  {
   "bufferView": 17,
   "componentType": 5126,
   "count": 315,
   "type": "VEC3"
  },
  {
   "bufferView": 18,
   "componentType": 5126,
   "count": 315,
   "type": "VEC2"
  },
  {
   "bufferView": 19,
   "componentType": 5123,
   "count": 1878,
   "type": "SCALAR"
  }
 ],
 "bufferViews": [
  {
   "buffer": 0,
   "byteOffset": 0,
   "byteLength": 67188,
   "target": 34962
  },
  {
   "buffer": 0,
   "byteOffset": 67188,
   "byteLength": 67188,
   "target": 34962
  },
  {
   "buffer": 0,
   "byteOffset": 134376,
   "byteLength": 44792,
   "target": 34962
  },
  {
   "buffer": 0,
   "byteOffset": 179168,
   "byteLength": 65304,
   "target": 34963
  },
  {
   "buffer": 0,
   "byteOffset": 244472,
   "byteLength": 18816,
   "target": 34962
  },
  {
   "buffer": 0,
   "byteOffset": 263288,
   "byteLength": 18816,
   "target": 34962
  },
  {
   "buffer": 0,
   "byteOffset": 282104,
   "byteLength": 12544,
   "target": 34962
  },
  {
   "buffer": 0,
   "byteOffset": 294648,
   "byteLength": 28224,
   "target": 34963
  },
  {
   "buffer": 0,
   "byteOffset": 322872,
   "byteLength": 4020,
   "target": 34962
  },
  {
   "buffer": 0,
   "byteOffset": 326892,
   "byteLength": 4020,
   "target": 34962
  },
  {
   "buffer": 0,
   "byteOffset": 330912,
   "byteLength": 2680,
   "target": 34962
  },
  {
   "buffer": 0,
   "byteOffset": 333592,
   "byteLength": 6276,
   "target": 34963
  },
  {
   "buffer": 0,
   "byteOffset": 339868,
   "byteLength": 14604,
   "target": 34962
  },
  {
   "buffer": 0,
   "byteOffset": 354472,
   "byteLength": 14604,
   "target": 34962
  },
  {
   "buffer": 0,
   "byteOffset": 369076,
   "byteLength": 9736,
   "target": 34962
  },
  {
   "buffer": 0,
   "byteOffset": 378812,
   "byteLength": 23580,
   "target": 34963
  },
  {
   "buffer": 0,
   "byteOffset": 402392,
   "byteLength": 3780,
   "target": 34962
  },
  {
   "buffer": 0,
   "byteOffset": 406172,
   "byteLength": 3780,
   "target": 34962
  },
  {
   "buffer": 0,
   "byteOffset": 409952,
   "byteLength": 2520,
   "target": 34962
  },
  {
   "buffer": 0,
   "byteOffset": 412472,
   "byteLength": 3756,
   "target": 34963
  }
 ],
 "buffers": [
  {
   "uri": "hub_lf.bin",
   "byteLength": 416228
  }
 ]
}