{
 "asset": {
  "version": "2.0",
  "generator": "cargame forest_to_gltf.py"
 },
 "scene": 0,
 "scenes": [
  {
   "nodes": [
    0
   ]
  }
 ],
 "nodes": [
  {
   "name": "bush_a",
   "mesh": 0
  }
 ],
 "meshes": [
  {
   "name": "bush_a",
   "primitives": [
    {
     "attributes": {
      "POSITION": 0,
      "NORMAL": 1,
      "TEXCOORD_0": 2
     },
     "indices": 3,
     "material": 0
    }
   ]
  }
 ],
 "materials": [
  {
   "name": "bush_a_mat",
   "pbrMetallicRoughness": {
    "baseColorFactor": [
     1,
     1,
     1,
     1
    ],
    "metallicFactor": 0.0,
    "roughnessFactor": 0.85
   },
   "doubleSided": true
  }
 ],
 "accessors": [
  {
   "bufferView": 0,
   "componentType": 5126,
   "count": 171,
   "type": "VEC3",
   "min": [
    -0.34035900235176086,
    1.1920928955078125e-07,
    -0.4384006857872009
   ],
   "max": [
    0.42847830057144165,
    1.1829946041107178,
    0.417470246553421
   ]
  },
  {
   "bufferView": 1,
   "componentType": 5126,
   "count": 171,
   "type": "VEC3"
  },
  {
   "bufferView": 2,
   "componentType": 5126,
   "count": 171,
   "type": "VEC2"
  },
  {
   "bufferView": 3,
   "componentType": 5123,
   "count": 474,
   "type": "SCALAR"
  }
 ],
 "bufferViews": [
  {
   "buffer": 0,
   "byteOffset": 0,
   "byteLength": 2052,
   "target": 34962
  },
  {
   "buffer": 0,
   "byteOffset": 2052,
   "byteLength": 2052,
   "target": 34962
  },
  {
   "buffer": 0,
   "byteOffset": 4104,
   "byteLength": 1368,
   "target": 34962
  },
  {
   "buffer": 0,
   "byteOffset": 5472,
   "byteLength": 948,
   "target": 34963
  }
 ],
 "buffers": [
  {
   "uri": "bush_a.bin",
   "byteLength": 6420
  }
 ]
}