{
 "asset": {
  "version": "2.0",
  "generator": "cargame forest_to_gltf.py"
 },
 "scene": 0,
 "scenes": [
  {
   "nodes": [
    0
   ]
  }
 ],
 "nodes": [
  {
   "name": "bush_b",
   "mesh": 0
  }
 ],
 "meshes": [
  {
   "name": "bush_b",
   "primitives": [
    {
     "attributes": {
      "POSITION": 0,
      "NORMAL": 1,
      "TEXCOORD_0": 2
     },
     "indices": 3,
     "material": 0
    }
   ]
  }
 ],
 "materials": [
  {
   "name": "bush_b_mat",
   "pbrMetallicRoughness": {
    "baseColorFactor": [
     1,
     1,
     1,
     1
    ],
    "metallicFactor": 0.0,
    "roughnessFactor": 0.85
   },
   "doubleSided": true
  }
 ],
 "accessors": [
  {
   "bufferView": 0,
   "componentType": 5126,
   "count": 162,
   "type": "VEC3",
   "min": [
    -0.28410863876342773,
    1.1920928955078125e-07,
    -0.3029116690158844
   ],
   "max": [
    0.39238467812538147,
    1.1829946041107178,
    0.417470246553421
   ]
  },
  {
   "bufferView": 1,
   "componentType": 5126,
   "count": 162,
   "type": "VEC3"
  },
  {
   "bufferView": 2,
   "componentType": 5126,
   "count": 162,
   "type": "VEC2"
  },
  {
   "bufferView": 3,
   "componentType": 5123,
   "count": 450,
   "type": "SCALAR"
  }
 ],
 "bufferViews": [
  {
   "buffer": 0,
   "byteOffset": 0,
   "byteLength": 1944,
   "target": 34962
  },
  {
   "buffer": 0,
   "byteOffset": 1944,
   "byteLength": 1944,
   "target": 34962
  },
  {
   "buffer": 0,
   "byteOffset": 3888,
   "byteLength": 1296,
   "target": 34962
  },
  {
   "buffer": 0,
   "byteOffset": 5184,
   "byteLength": 900,
   "target": 34963
  }
 ],
 "buffers": [
  {
   "uri": "bush_b.bin",
   "byteLength": 6084
  }
 ]
}