{"asset":{"version":"2.0","generator":"mesh_decimate.py"},"scene":0,"scenes":[{"nodes":[0]}],"nodes":[{"mesh":0,"name":"daisy"}],"meshes":[{"name":"daisy","primitives":[{"attributes":{"POSITION":0,"NORMAL":1,"TEXCOORD_0":2},"indices":3,"material":0}]}],"materials":[{"name":"daisy_mat","pbrMetallicRoughness":{"baseColorFactor":[1,1,1,1],"metallicFactor":0.0,"roughnessFactor":0.85},"doubleSided":true}],"bufferViews":[{"buffer":0,"byteOffset":0,"byteLength":1416,"target":34962},{"buffer":0,"byteOffset":1416,"byteLength":1416,"target":34962},{"buffer":0,"byteOffset":2832,"byteLength":944,"target":34962},{"buffer":0,"byteOffset":3776,"byteLength":936,"target":34963}],"accessors":[{"bufferView":0,"componentType":5126,"count":118,"type":"VEC3","min":[-0.2559646666049957,-0.0005793417803943157,-0.24986661970615387],"max":[0.2771586775779724,0.17028914391994476,0.3112325767676036]},{"bufferView":1,"componentType":5126,"count":118,"type":"VEC3"},{"bufferView":2,"componentType":5126,"count":118,"type":"VEC2"},{"bufferView":3,"componentType":5125,"count":234,"type":"SCALAR"}],"buffers":[{"uri":"daisy.bin","byteLength":4712}]}