{"asset":{"version":"2.0","generator":"mesh_decimate.py"},"scene":0,"scenes":[{"nodes":[0]}],"nodes":[{"mesh":0,"name":"grass_wide"}],"meshes":[{"name":"grass_wide","primitives":[{"attributes":{"POSITION":0,"NORMAL":1,"TEXCOORD_0":2},"indices":3,"material":0}]}],"materials":[{"name":"grass_wide_mat","pbrMetallicRoughness":{"baseColorFactor":[1,1,1,1],"metallicFactor":0.0,"roughnessFactor":0.85},"doubleSided":true}],"bufferViews":[{"buffer":0,"byteOffset":0,"byteLength":7692,"target":34962},{"buffer":0,"byteOffset":7692,"byteLength":7692,"target":34962},{"buffer":0,"byteOffset":15384,"byteLength":5128,"target":34962},{"buffer":0,"byteOffset":20512,"byteLength":4104,"target":34963}],"accessors":[{"bufferView":0,"componentType":5126,"count":641,"type":"VEC3","min":[-0.3742203712463379,-0.009382340591400862,-0.377616822719574],"max":[0.3342890838781993,0.20762522518634796,0.35292863845825195]},{"bufferView":1,"componentType":5126,"count":641,"type":"VEC3"},{"bufferView":2,"componentType":5126,"count":641,"type":"VEC2"},{"bufferView":3,"componentType":5125,"count":1026,"type":"SCALAR"}],"buffers":[{"uri":"grass_wide.bin","byteLength":24616}]}