{"asset":{"version":"2.0","generator":"mesh_decimate.py"},"scene":0,"scenes":[{"nodes":[0]}],"nodes":[{"mesh":0,"name":"grass_fine"}],"meshes":[{"name":"grass_fine","primitives":[{"attributes":{"POSITION":0,"NORMAL":1,"TEXCOORD_0":2},"indices":3,"material":0}]}],"materials":[{"name":"grass_fine_mat","pbrMetallicRoughness":{"baseColorFactor":[1,1,1,1],"metallicFactor":0.0,"roughnessFactor":0.85},"doubleSided":true}],"bufferViews":[{"buffer":0,"byteOffset":0,"byteLength":3660,"target":34962},{"buffer":0,"byteOffset":3660,"byteLength":3660,"target":34962},{"buffer":0,"byteOffset":7320,"byteLength":2440,"target":34962},{"buffer":0,"byteOffset":9760,"byteLength":1464,"target":34963}],"accessors":[{"bufferView":0,"componentType":5126,"count":305,"type":"VEC3","min":[-0.27198487520217896,-0.013290890492498875,-0.26854151487350464],"max":[0.20187991857528687,0.17847610513369241,0.2210170477628708]},{"bufferView":1,"componentType":5126,"count":305,"type":"VEC3"},{"bufferView":2,"componentType":5126,"count":305,"type":"VEC2"},{"bufferView":3,"componentType":5125,"count":366,"type":"SCALAR"}],"buffers":[{"uri":"grass_fine.bin","byteLength":11224}]}