{
 "asset": {
  "version": "2.0",
  "generator": "cargame forest_to_gltf.py"
 },
 "scene": 0,
 "scenes": [
  {
   "nodes": [
    0
   ]
  }
 ],
 "nodes": [
  {
   "name": "plant",
   "mesh": 0
  }
 ],
 "meshes": [
  {
   "name": "plant",
   "primitives": [
    {
     "attributes": {
      "POSITION": 0,
      "NORMAL": 1,
      "TEXCOORD_0": 2
     },
     "indices": 3,
     "material": 0
    }
   ]
  }
 ],
 "materials": [
  {
   "name": "plant_mat",
   "pbrMetallicRoughness": {
    "baseColorFactor": [
     1,
     1,
     1,
     1
    ],
    "metallicFactor": 0.0,
    "roughnessFactor": 0.85
   },
   "doubleSided": true
  }
 ],
 "accessors": [
  {
   "bufferView": 0,
   "componentType": 5126,
   "count": 233,
   "type": "VEC3",
   "min": [
    -0.12524473667144775,
    0.000931859016418457,
    -0.14834311604499817
   ],
   "max": [
    0.20603865385055542,
    1.271897315979004,
    0.17712721228599548
   ]
  },
  {
   "bufferView": 1,
   "componentType": 5126,
   "count": 233,
   "type": "VEC3"
  },
  {
   "bufferView": 2,
   "componentType": 5126,
   "count": 233,
   "type": "VEC2"
  },
  {
   "bufferView": 3,
   "componentType": 5123,
   "count": 555,
   "type": "SCALAR"
  }
 ],
 "bufferViews": [
  {
   "buffer": 0,
   "byteOffset": 0,
   "byteLength": 2796,
   "target": 34962
  },
  {
   "buffer": 0,
   "byteOffset": 2796,
   "byteLength": 2796,
   "target": 34962
  },
  {
   "buffer": 0,
   "byteOffset": 5592,
   "byteLength": 1864,
   "target": 34962
  },
  {
   "buffer": 0,
   "byteOffset": 7456,
   "byteLength": 1110,
   "target": 34963
  }
 ],
 "buffers": [
  {
   "uri": "plant.bin",
   "byteLength": 8566
  }
 ]
}