{
 "asset": {
  "version": "2.0",
  "generator": "cargame forest_to_gltf.py"
 },
 "scene": 0,
 "scenes": [
  {
   "nodes": [
    0
   ]
  }
 ],
 "nodes": [
  {
   "name": "rock_a",
   "mesh": 0
  }
 ],
 "meshes": [
  {
   "name": "rock_a",
   "primitives": [
    {
     "attributes": {
      "POSITION": 0,
      "NORMAL": 1,
      "TEXCOORD_0": 2
     },
     "indices": 3,
     "material": 0
    }
   ]
  }
 ],
 "materials": [
  {
   "name": "rock_a_mat",
   "pbrMetallicRoughness": {
    "baseColorFactor": [
     1,
     1,
     1,
     1
    ],
    "metallicFactor": 0.0,
    "roughnessFactor": 0.85
   },
   "doubleSided": true
  }
 ],
 "accessors": [
  {
   "bufferView": 0,
   "componentType": 5126,
   "count": 2870,
   "type": "VEC3",
   "min": [
    -1.402869391441345,
    -0.3278317272663116,
    -1.652012276649475
   ],
   "max": [
    1.203749930858612,
    3.854610919952392,
    1.9447631359100341
   ]
  },
  {
   "bufferView": 1,
   "componentType": 5126,
   "count": 2870,
   "type": "VEC3"
  },
  {
   "bufferView": 2,
   "componentType": 5126,
   "count": 2870,
   "type": "VEC2"
  },
  {
   "bufferView": 3,
   "componentType": 5123,
   "count": 10512,
   "type": "SCALAR"
  }
 ],
 "bufferViews": [
  {
   "buffer": 0,
   "byteOffset": 0,
   "byteLength": 34440,
   "target": 34962
  },
  {
   "buffer": 0,
   "byteOffset": 34440,
   "byteLength": 34440,
   "target": 34962
  },
  {
   "buffer": 0,
   "byteOffset": 68880,
   "byteLength": 22960,
   "target": 34962
  },
  {
   "buffer": 0,
   "byteOffset": 91840,
   "byteLength": 21024,
   "target": 34963
  }
 ],
 "buffers": [
  {
   "uri": "rock_a.bin",
   "byteLength": 112864
  }
 ]
}