{
 "asset": {
  "version": "2.0",
  "generator": "cargame forest_to_gltf.py"
 },
 "scene": 0,
 "scenes": [
  {
   "nodes": [
    0
   ]
  }
 ],
 "nodes": [
  {
   "name": "rock_c",
   "mesh": 0
  }
 ],
 "meshes": [
  {
   "name": "rock_c",
   "primitives": [
    {
     "attributes": {
      "POSITION": 0,
      "NORMAL": 1,
      "TEXCOORD_0": 2
     },
     "indices": 3,
     "material": 0
    }
   ]
  }
 ],
 "materials": [
  {
   "name": "rock_c_mat",
   "pbrMetallicRoughness": {
    "baseColorFactor": [
     1,
     1,
     1,
     1
    ],
    "metallicFactor": 0.0,
    "roughnessFactor": 0.85
   },
   "doubleSided": true
  }
 ],
 "accessors": [
  {
   "bufferView": 0,
   "componentType": 5126,
   "count": 1075,
   "type": "VEC3",
   "min": [
    -1.074359531402588,
    -0.22,
    -1.054455223083496
   ],
   "max": [
    1.0423382663726806,
    3.0652441787719726,
    1.814942512512207
   ]
  },
  {
   "bufferView": 1,
   "componentType": 5126,
   "count": 1075,
   "type": "VEC3"
  },
  {
   "bufferView": 2,
   "componentType": 5126,
   "count": 1075,
   "type": "VEC2"
  },
  {
   "bufferView": 3,
   "componentType": 5123,
   "count": 2670,
   "type": "SCALAR"
  }
 ],
 "bufferViews": [
  {
   "buffer": 0,
   "byteOffset": 0,
   "byteLength": 12900,
   "target": 34962
  },
  {
   "buffer": 0,
   "byteOffset": 12900,
   "byteLength": 12900,
   "target": 34962
  },
  {
   "buffer": 0,
   "byteOffset": 25800,
   "byteLength": 8600,
   "target": 34962
  },
  {
   "buffer": 0,
   "byteOffset": 34400,
   "byteLength": 5340,
   "target": 34963
  }
 ],
 "buffers": [
  {
   "uri": "rock_c.bin",
   "byteLength": 39740
  }
 ]
}