{
 "asset": {
  "version": "2.0",
  "generator": "cargame decimate"
 },
 "scene": 0,
 "scenes": [
  {
   "nodes": [
    0
   ]
  }
 ],
 "nodes": [
  {
   "name": "tree_far",
   "mesh": 0
  }
 ],
 "meshes": [
  {
   "name": "tree_far",
   "primitives": [
    {
     "attributes": {
      "POSITION": 0,
      "NORMAL": 1,
      "TEXCOORD_0": 2
     },
     "indices": 3,
     "material": 0
    }
   ]
  }
 ],
 "materials": [
  {
   "name": "tree_far_mat",
   "pbrMetallicRoughness": {
    "baseColorFactor": [
     1,
     1,
     1,
     1
    ],
    "metallicFactor": 0.0,
    "roughnessFactor": 0.9
   },
   "doubleSided": true
  }
 ],
 "accessors": [
  {
   "bufferView": 0,
   "componentType": 5126,
   "count": 699,
   "type": "VEC3",
   "min": [
    -1.4693745225667953,
    -1.4188406360915451e-08,
    -1.5165239572525024
   ],
   "max": [
    1.6998804807662964,
    6.807469487190247,
    1.6935327649116516
   ]
  },
  {
   "bufferView": 1,
   "componentType": 5126,
   "count": 699,
   "type": "VEC3"
  },
  {
   "bufferView": 2,
   "componentType": 5126,
   "count": 699,
   "type": "VEC2"
  },
  {
   "bufferView": 3,
   "componentType": 5123,
   "count": 3843,
   "type": "SCALAR"
  }
 ],
 "bufferViews": [
  {
   "buffer": 0,
   "byteOffset": 0,
   "byteLength": 8388,
   "target": 34962
  },
  {
   "buffer": 0,
   "byteOffset": 8388,
   "byteLength": 8388,
   "target": 34962
  },
  {
   "buffer": 0,
   "byteOffset": 16776,
   "byteLength": 5592,
   "target": 34962
  },
  {
   "buffer": 0,
   "byteOffset": 22368,
   "byteLength": 7686,
   "target": 34963
  }
 ],
 "buffers": [
  {
   "uri": "tree_far.bin",
   "byteLength": 30054
  }
 ]
}