{
 "asset": {
  "version": "2.0",
  "generator": "cargame forest_to_gltf.py"
 },
 "scene": 0,
 "scenes": [
  {
   "nodes": [
    0
   ]
  }
 ],
 "nodes": [
  {
   "name": "tree",
   "mesh": 0
  }
 ],
 "meshes": [
  {
   "name": "tree",
   "primitives": [
    {
     "attributes": {
      "POSITION": 0,
      "NORMAL": 1,
      "TEXCOORD_0": 2
     },
     "indices": 3,
     "material": 0
    }
   ]
  }
 ],
 "materials": [
  {
   "name": "tree_mat",
   "pbrMetallicRoughness": {
    "baseColorFactor": [
     1,
     1,
     1,
     1
    ],
    "metallicFactor": 0.0,
    "roughnessFactor": 0.85
   },
   "doubleSided": true
  }
 ],
 "accessors": [
  {
   "bufferView": 0,
   "componentType": 5126,
   "count": 24118,
   "type": "VEC3",
   "min": [
    -1.6166276931762695,
    -1.610613686864326e-08,
    -1.5165239572525024
   ],
   "max": [
    1.7159922122955322,
    6.868366718292236,
    1.7038410902023315
   ]
  },
  {
   "bufferView": 1,
   "componentType": 5126,
   "count": 24118,
   "type": "VEC3"
  },
  {
   "bufferView": 2,
   "componentType": 5126,
   "count": 24118,
   "type": "VEC2"
  },
  {
   "bufferView": 3,
   "componentType": 5123,
   "count": 84981,
   "type": "SCALAR"
  }
 ],
 "bufferViews": [
  {
   "buffer": 0,
   "byteOffset": 0,
   "byteLength": 289416,
   "target": 34962
  },
  {
   "buffer": 0,
   "byteOffset": 289416,
   "byteLength": 289416,
   "target": 34962
  },
  {
   "buffer": 0,
   "byteOffset": 578832,
   "byteLength": 192944,
   "target": 34962
  },
  {
   "buffer": 0,
   "byteOffset": 771776,
   "byteLength": 169962,
   "target": 34963
  }
 ],
 "buffers": [
  {
   "uri": "tree.bin",
   "byteLength": 941738
  }
 ]
}