{
 "asset": {
  "version": "2.0",
  "generator": "cargame defender_to_gltf.py"
 },
 "scene": 0,
 "scenes": [
  {
   "nodes": [
    0
   ]
  }
 ],
 "nodes": [
  {
   "name": "body",
   "mesh": 0
  }
 ],
 "meshes": [
  {
   "name": "body",
   "primitives": [
    {
     "attributes": {
      "POSITION": 0,
      "NORMAL": 1,
      "TEXCOORD_0": 2
     },
     "indices": 3,
     "material": 0
    },
    {
     "attributes": {
      "POSITION": 4,
      "NORMAL": 5,
      "TEXCOORD_0": 6
     },
     "indices": 7,
     "material": 1
    },
    {
     "attributes": {
      "POSITION": 8,
      "NORMAL": 9,
      "TEXCOORD_0": 10
     },
     "indices": 11,
     "material": 2
    },
    {
     "attributes": {
      "POSITION": 12,
      "NORMAL": 13,
      "TEXCOORD_0": 14
     },
     "indices": 15,
     "material": 3
    },
    {
     "attributes": {
      "POSITION": 16,
      "NORMAL": 17,
      "TEXCOORD_0": 18
     },
     "indices": 19,
     "material": 4
    },
    {
     "attributes": {
      "POSITION": 20,
      "NORMAL": 21,
      "TEXCOORD_0": 22
     },
     "indices": 23,
     "material": 5
    },
    {
     "attributes": {
      "POSITION": 24,
      "NORMAL": 25,
      "TEXCOORD_0": 26
     },
     "indices": 27,
     "material": 6
    },
    {
     "attributes": {
      "POSITION": 28,
      "NORMAL": 29,
      "TEXCOORD_0": 30
     },
     "indices": 31,
     "material": 7
    },
    {
     "attributes": {
      "POSITION": 32,
      "NORMAL": 33,
      "TEXCOORD_0": 34
     },
     "indices": 35,
     "material": 8
    },
    {
     "attributes": {
      "POSITION": 36,
      "NORMAL": 37,
      "TEXCOORD_0": 38
     },
     "indices": 39,
     "material": 9
    },
    {
     "attributes": {
      "POSITION": 40,
      "NORMAL": 41,
      "TEXCOORD_0": 42
     },
     "indices": 43,
     "material": 10
    },
    {
     "attributes": {
      "POSITION": 44,
      "NORMAL": 45,
      "TEXCOORD_0": 46
     },
     "indices": 47,
     "material": 11
    },
    {
     "attributes": {
      "POSITION": 48,
      "NORMAL": 49,
      "TEXCOORD_0": 50
     },
     "indices": 51,
     "material": 12
    },
    {
     "attributes": {
      "POSITION": 52,
      "NORMAL": 53,
      "TEXCOORD_0": 54
     },
     "indices": 55,
     "material": 13
    }
   ]
  }
 ],
 "materials": [
  {
   "name": "Silver_detail",
   "pbrMetallicRoughness": {
    "baseColorFactor": [
     0.55,
     0.57,
     0.6,
     1.0
    ],
    "metallicFactor": 0.65,
    "roughnessFactor": 0.38
   },
   "doubleSided": false
  },
  {
   "name": "plt_details_1",
   "pbrMetallicRoughness": {
    "baseColorFactor": [
     0.13,
     0.135,
     0.14,
     1.0
    ],
    "metallicFactor": 0.6,
    "roughnessFactor": 0.45
   },
   "doubleSided": false
  },
  {
   "name": "Wheel_BRC",
   "pbrMetallicRoughness": {
    "baseColorFactor": [
     0.055,
     0.055,
     0.06,
     1.0
    ],
    "metallicFactor": 0.0,
    "roughnessFactor": 0.95
   },
   "doubleSided": false
  },
  {
   "name": "Paint_base",
   "pbrMetallicRoughness": {
    "baseColorFactor": [
     0.16,
     0.22,
     0.17,
     1.0
    ],
    "metallicFactor": 0.35,
    "roughnessFactor": 0.32
   },
   "doubleSided": false
  },
  {
   "name": "Grass_Base",
   "pbrMetallicRoughness": {
    "baseColorFactor": [
     0.16,
     0.22,
     0.17,
     1.0
    ],
    "metallicFactor": 0.3,
    "roughnessFactor": 0.42
   },
   "doubleSided": false
  },
  {
   "name": "GRASS_LGT",
   "pbrMetallicRoughness": {
    "baseColorFactor": [
     0.13,
     0.16,
     0.19,
     0.42
    ],
    "metallicFactor": 0.0,
    "roughnessFactor": 0.05
   },
   "doubleSided": false,
   "alphaMode": "BLEND"
  },
  {
   "name": "LIGHT_EMIT",
   "pbrMetallicRoughness": {
    "baseColorFactor": [
     0.9,
     0.88,
     0.8,
     1.0
    ],
    "metallicFactor": 0.0,
    "roughnessFactor": 0.15
   },
   "doubleSided": false
  },
  {
   "name": "LGT_MRR_Base",
   "pbrMetallicRoughness": {
    "baseColorFactor": [
     0.16,
     0.22,
     0.17,
     1.0
    ],
    "metallicFactor": 0.3,
    "roughnessFactor": 0.42
   },
   "doubleSided": false
  },
  {
   "name": "Gray_metal",
   "pbrMetallicRoughness": {
    "baseColorFactor": [
     0.42,
     0.44,
     0.47,
     1.0
    ],
    "metallicFactor": 0.85,
    "roughnessFactor": 0.4
   },
   "doubleSided": false
  },
  {
   "name": "PRL_silver",
   "pbrMetallicRoughness": {
    "baseColorFactor": [
     0.55,
     0.57,
     0.6,
     1.0
    ],
    "metallicFactor": 0.65,
    "roughnessFactor": 0.38
   },
   "doubleSided": false
  },
  {
   "name": "AXI_bas",
   "pbrMetallicRoughness": {
    "baseColorFactor": [
     0.075,
     0.075,
     0.08,
     1.0
    ],
    "metallicFactor": 0.55,
    "roughnessFactor": 0.72
   },
   "doubleSided": false
  },
  {
   "name": "BCK_Base",
   "pbrMetallicRoughness": {
    "baseColorFactor": [
     0.16,
     0.22,
     0.17,
     1.0
    ],
    "metallicFactor": 0.3,
    "roughnessFactor": 0.42
   },
   "doubleSided": false
  },
  {
   "name": "AXI_Arm",
   "pbrMetallicRoughness": {
    "baseColorFactor": [
     0.075,
     0.075,
     0.08,
     1.0
    ],
    "metallicFactor": 0.55,
    "roughnessFactor": 0.72
   },
   "doubleSided": false
  },
  {
   "name": "PLC_Base",
   "pbrMetallicRoughness": {
    "baseColorFactor": [
     0.16,
     0.22,
     0.17,
     1.0
    ],
    "metallicFactor": 0.3,
    "roughnessFactor": 0.42
   },
   "doubleSided": false
  }
 ],
 "accessors": [
  {
   "bufferView": 0,
   "componentType": 5126,
   "count": 16200,
   "type": "VEC3",
   "min": [
    -1.0078476280174657,
    0.6002315463642964,
    -2.483164724196458
   ],
   "max": [
    1.007847849701194,
    2.1250924781787677,
    3.0202945479242334
   ]
  },
  {
   "bufferView": 1,
   "componentType": 5126,
   "count": 16200,
   "type": "VEC3"
  },
  {
   "bufferView": 2,
   "componentType": 5126,
   "count": 16200,
   "type": "VEC2"
  },
  {
   "bufferView": 3,
   "componentType": 5123,
   "count": 104343,
   "type": "SCALAR"
  },
  {
   "bufferView": 4,
   "componentType": 5126,
   "count": 819,
   "type": "VEC3",
   "min": [
    -0.41054859920529985,
    0.7246563804732458,
    -2.4238869751988807
   ],
   "max": [
    0.4143069694530954,
    1.582438534183409,
    -1.6833428424488392
   ]
  },
  {
   "bufferView": 5,
   "componentType": 5126,
   "count": 819,
   "type": "VEC3"
  },
  {
   "bufferView": 6,
   "componentType": 5126,
   "count": 819,
   "type": "VEC2"
  },
  {
   "bufferView": 7,
   "componentType": 5123,
   "count": 5844,
   "type": "SCALAR"
  },
  {
   "bufferView": 8,
   "componentType": 5126,
   "count": 15565,
   "type": "VEC3",
   "min": [
    -1.020037924386587,
    0.35746024370198204,
    -2.3640122085818476
   ],
   "max": [
    1.0200379373476987,
    1.9570376477271603,
    2.983934864501425
   ]
  },
  {
   "bufferView": 9,
   "componentType": 5126,
   "count": 15565,
   "type": "VEC3"
  },
  {
   "bufferView": 10,
   "componentType": 5126,
   "count": 15565,
   "type": "VEC2"
  },
  {
   "bufferView": 11,
   "componentType": 5123,
   "count": 104511,
   "type": "SCALAR"
  },
  {
   "bufferView": 12,
   "componentType": 5126,
   "count": 7176,
   "type": "VEC3",
   "min": [
    -1.1117369464258628,
    0.5847992674812578,
    -2.0162133233553843
   ],
   "max": [
    1.1117374574090653,
    2.0369305031270315,
    2.936783797802982
   ]
  },
  {
   "bufferView": 13,
   "componentType": 5126,
   "count": 7176,
   "type": "VEC3"
  },
  {
   "bufferView": 14,
   "componentType": 5126,
   "count": 7176,
   "type": "VEC2"
  },
  {
   "bufferView": 15,
   "componentType": 5123,
   "count": 42516,
   "type": "SCALAR"
  },
  {
   "bufferView": 16,
   "componentType": 5126,
   "count": 936,
   "type": "VEC3",
   "min": [
    -0.8711961470657582,
    1.508936827103348,
    -0.6893714211869241
   ],
   "max": [
    0.8711966176060861,
    1.9345104294887907,
    0.9602538586258581
   ]
  },
  {
   "bufferView": 17,
   "componentType": 5126,
   "count": 936,
   "type": "VEC3"
  },
  {
   "bufferView": 18,
   "componentType": 5126,
   "count": 936,
   "type": "VEC2"
  },
  {
   "bufferView": 19,
   "componentType": 5123,
   "count": 4884,
   "type": "SCALAR"
  },
  {
   "bufferView": 20,
   "componentType": 5126,
   "count": 212,
   "type": "VEC3",
   "min": [
    -0.9341670471817264,
    1.0874722723274364,
    -2.368810263361602
   ],
   "max": [
    0.9341673817961204,
    1.4166259999373672,
    2.920214303866024
   ]
  },
  {
   "bufferView": 21,
   "componentType": 5126,
   "count": 212,
   "type": "VEC3"
  },
  {
   "bufferView": 22,
   "componentType": 5126,
   "count": 212,
   "type": "VEC2"
  },
  {
   "bufferView": 23,
   "componentType": 5123,
   "count": 1632,
   "type": "SCALAR"
  },
  {
   "bufferView": 24,
   "componentType": 5126,
   "count": 192,
   "type": "VEC3",
   "min": [
    -0.8022462811658172,
    1.193092002077045,
    -2.3684911143327425
   ],
   "max": [
    0.8022466942465367,
    1.3776631540772084,
    -2.1420626377971943
   ]
  },
  {
   "bufferView": 25,
   "componentType": 5126,
   "count": 192,
   "type": "VEC3"
  },
  {
   "bufferView": 26,
   "componentType": 5126,
   "count": 192,
   "type": "VEC2"
  },
  {
   "bufferView": 27,
   "componentType": 5123,
   "count": 1092,
   "type": "SCALAR"
  },
  {
   "bufferView": 28,
   "componentType": 5126,
   "count": 214,
   "type": "VEC3",
   "min": [
    -0.9310148364931842,
    1.0857982160674828,
    -2.137882003344123
   ],
   "max": [
    0.9310151699513293,
    1.4095710446507481,
    2.913969764127906
   ]
  },
  {
   "bufferView": 29,
   "componentType": 5126,
   "count": 214,
   "type": "VEC3"
  },
  {
   "bufferView": 30,
   "componentType": 5126,
   "count": 214,
   "type": "VEC2"
  },
  {
   "bufferView": 31,
   "componentType": 5123,
   "count": 1368,
   "type": "SCALAR"
  },
  {
   "bufferView": 32,
   "componentType": 5126,
   "count": 209,
   "type": "VEC3",
   "min": [
    -0.9610611777916396,
    0.3855055041490647,
    -2.459446037782953
   ],
   "max": [
    0.9610613328610556,
    1.3992351544213846,
    -1.956900096836279
   ]
  },
  {
   "bufferView": 33,
   "componentType": 5126,
   "count": 209,
   "type": "VEC3"
  },
  {
   "bufferView": 34,
   "componentType": 5126,
   "count": 209,
   "type": "VEC2"
  },
  {
   "bufferView": 35,
   "componentType": 5123,
   "count": 1446,
   "type": "SCALAR"
  },
  {
   "bufferView": 36,
   "componentType": 5126,
   "count": 648,
   "type": "VEC3",
   "min": [
    -0.9716897657213285,
    0.485630794381013,
    -2.1546955920377324
   ],
   "max": [
    0.9716900842176106,
    1.4915825631636304,
    2.364599278774095
   ]
  },
  {
   "bufferView": 37,
   "componentType": 5126,
   "count": 648,
   "type": "VEC3"
  },
  {
   "bufferView": 38,
   "componentType": 5126,
   "count": 648,
   "type": "VEC2"
  },
  {
   "bufferView": 39,
   "componentType": 5123,
   "count": 3336,
   "type": "SCALAR"
  },
  {
   "bufferView": 40,
   "componentType": 5126,
   "count": 261,
   "type": "VEC3",
   "min": [
    -0.08185271456837549,
    0.5389339965582229,
    0.029253339767456057
   ],
   "max": [
    0.07885131701826943,
    0.6964239817858058,
    1.4227738142013555
   ]
  },
  {
   "bufferView": 41,
   "componentType": 5126,
   "count": 261,
   "type": "VEC3"
  },
  {
   "bufferView": 42,
   "componentType": 5126,
   "count": 261,
   "type": "VEC2"
  },
  {
   "bufferView": 43,
   "componentType": 5123,
   "count": 1560,
   "type": "SCALAR"
  },
  {
   "bufferView": 44,
   "componentType": 5126,
   "count": 299,
   "type": "VEC3",
   "min": [
    -0.8593089701662622,
    0.9246706850621441,
    1.1518516782375723
   ],
   "max": [
    0.8593094250746601,
    1.5049215408625247,
    2.878458273154357
   ]
  },
  {
   "bufferView": 45,
   "componentType": 5126,
   "count": 299,
   "type": "VEC3"
  },
  {
   "bufferView": 46,
   "componentType": 5126,
   "count": 299,
   "type": "VEC2"
  },
  {
   "bufferView": 47,
   "componentType": 5123,
   "count": 1956,
   "type": "SCALAR"
  },
  {
   "bufferView": 48,
   "componentType": 5126,
   "count": 165,
   "type": "VEC3",
   "min": [
    -0.05921709231255665,
    0.5096789799883531,
    -1.1056721305847168
   ],
   "max": [
    0.056215687923447284,
    0.7256790079429281,
    1.2179571294784546
   ]
  },
  {
   "bufferView": 49,
   "componentType": 5126,
   "count": 165,
   "type": "VEC3"
  },
  {
   "bufferView": 50,
   "componentType": 5126,
   "count": 165,
   "type": "VEC2"
  },
  {
   "bufferView": 51,
   "componentType": 5123,
   "count": 954,
   "type": "SCALAR"
  },
  {
   "bufferView": 52,
   "componentType": 5126,
   "count": 8,
   "type": "VEC3",
   "min": [
    -0.18191861395663506,
    0.7506470274671574,
    -2.4283333376475436
   ],
   "max": [
    0.18379788118436438,
    1.0192184276717724,
    2.918722652489638
   ]
  },
  {
   "bufferView": 53,
   "componentType": 5126,
   "count": 8,
   "type": "VEC3"
  },
  {
   "bufferView": 54,
   "componentType": 5126,
   "count": 8,
   "type": "VEC2"
  },
  {
   "bufferView": 55,
   "componentType": 5123,
   "count": 24,
   "type": "SCALAR"
  }
 ],
 "bufferViews": [
  {
   "buffer": 0,
   "byteOffset": 0,
   "byteLength": 194400,
   "target": 34962
  },
  {
   "buffer": 0,
   "byteOffset": 194400,
   "byteLength": 194400,
   "target": 34962
  },
  {
   "buffer": 0,
   "byteOffset": 388800,
   "byteLength": 129600,
   "target": 34962
  },
  {
   "buffer": 0,
   "byteOffset": 518400,
   "byteLength": 208686,
   "target": 34963
  },
  {
   "buffer": 0,
   "byteOffset": 727088,
   "byteLength": 9828,
   "target": 34962
  },
  {
   "buffer": 0,
   "byteOffset": 736916,
   "byteLength": 9828,
   "target": 34962
  },
  {
   "buffer": 0,
   "byteOffset": 746744,
   "byteLength": 6552,
   "target": 34962
  },
  {
   "buffer": 0,
   "byteOffset": 753296,
   "byteLength": 11688,
   "target": 34963
  },
  {
   "buffer": 0,
   "byteOffset": 764984,
   "byteLength": 186780,
   "target": 34962
  },
  {
   "buffer": 0,
   "byteOffset": 951764,
   "byteLength": 186780,
   "target": 34962
  },
  {
   "buffer": 0,
   "byteOffset": 1138544,
   "byteLength": 124520,
   "target": 34962
  },
  {
   "buffer": 0,
   "byteOffset": 1263064,
   "byteLength": 209022,
   "target": 34963
  },
  {
   "buffer": 0,
   "byteOffset": 1472088,
   "byteLength": 86112,
   "target": 34962
  },
  {
   "buffer": 0,
   "byteOffset": 1558200,
   "byteLength": 86112,
   "target": 34962
  },
  {
   "buffer": 0,
   "byteOffset": 1644312,
   "byteLength": 57408,
   "target": 34962
  },
  {
   "buffer": 0,
   "byteOffset": 1701720,
   "byteLength": 85032,
   "target": 34963
  },
  {
   "buffer": 0,
   "byteOffset": 1786752,
   "byteLength": 11232,
   "target": 34962
  },
  {
   "buffer": 0,
   "byteOffset": 1797984,
   "byteLength": 11232,
   "target": 34962
  },
  {
   "buffer": 0,
   "byteOffset": 1809216,
   "byteLength": 7488,
   "target": 34962
  },
  {
   "buffer": 0,
   "byteOffset": 1816704,
   "byteLength": 9768,
   "target": 34963
  },
  {
   "buffer": 0,
   "byteOffset": 1826472,
   "byteLength": 2544,
   "target": 34962
  },
  {
   "buffer": 0,
   "byteOffset": 1829016,
   "byteLength": 2544,
   "target": 34962
  },
  {
   "buffer": 0,
   "byteOffset": 1831560,
   "byteLength": 1696,
   "target": 34962
  },
  {
   "buffer": 0,
   "byteOffset": 1833256,
   "byteLength": 3264,
   "target": 34963
  },
  {
   "buffer": 0,
   "byteOffset": 1836520,
   "byteLength": 2304,
   "target": 34962
  },
  {
   "buffer": 0,
   "byteOffset": 1838824,
   "byteLength": 2304,
   "target": 34962
  },
  {
   "buffer": 0,
   "byteOffset": 1841128,
   "byteLength": 1536,
   "target": 34962
  },
  {
   "buffer": 0,
   "byteOffset": 1842664,
   "byteLength": 2184,
   "target": 34963
  },
  {
   "buffer": 0,
   "byteOffset": 1844848,
   "byteLength": 2568,
   "target": 34962
  },
  {
   "buffer": 0,
   "byteOffset": 1847416,
   "byteLength": 2568,
   "target": 34962
  },
  {
   "buffer": 0,
   "byteOffset": 1849984,
   "byteLength": 1712,
   "target": 34962
  },
  {
   "buffer": 0,
   "byteOffset": 1851696,
   "byteLength": 2736,
   "target": 34963
  },
  {
   "buffer": 0,
   "byteOffset": 1854432,
   "byteLength": 2508,
   "target": 34962
  },
  {
   "buffer": 0,
   "byteOffset": 1856940,
   "byteLength": 2508,
   "target": 34962
  },
  {
   "buffer": 0,
   "byteOffset": 1859448,
   "byteLength": 1672,
   "target": 34962
  },
  {
   "buffer": 0,
   "byteOffset": 1861120,
   "byteLength": 2892,
   "target": 34963
  },
  {
   "buffer": 0,
   "byteOffset": 1864012,
   "byteLength": 7776,
   "target": 34962
  },
  {
   "buffer": 0,
   "byteOffset": 1871788,
   "byteLength": 7776,
   "target": 34962
  },
  {
   "buffer": 0,
   "byteOffset": 1879564,
   "byteLength": 5184,
   "target": 34962
  },
  {
   "buffer": 0,
   "byteOffset": 1884748,
   "byteLength": 6672,
   "target": 34963
  },
  {
   "buffer": 0,
   "byteOffset": 1891420,
   "byteLength": 3132,
   "target": 34962
  },
  {
   "buffer": 0,
   "byteOffset": 1894552,
   "byteLength": 3132,
   "target": 34962
  },
  {
   "buffer": 0,
   "byteOffset": 1897684,
   "byteLength": 2088,
   "target": 34962
  },
  {
   "buffer": 0,
   "byteOffset": 1899772,
   "byteLength": 3120,
   "target": 34963
  },
  {
   "buffer": 0,
   "byteOffset": 1902892,
   "byteLength": 3588,
   "target": 34962
  },
  {
   "buffer": 0,
   "byteOffset": 1906480,
   "byteLength": 3588,
   "target": 34962
  },
  {
   "buffer": 0,
   "byteOffset": 1910068,
   "byteLength": 2392,
   "target": 34962
  },
  {
   "buffer": 0,
   "byteOffset": 1912460,
   "byteLength": 3912,
   "target": 34963
  },
  {
   "buffer": 0,
   "byteOffset": 1916372,
   "byteLength": 1980,
   "target": 34962
  },
  {
   "buffer": 0,
   "byteOffset": 1918352,
   "byteLength": 1980,
   "target": 34962
  },
  {
   "buffer": 0,
   "byteOffset": 1920332,
   "byteLength": 1320,
   "target": 34962
  },
  {
   "buffer": 0,
   "byteOffset": 1921652,
   "byteLength": 1908,
   "target": 34963
  },
  {
   "buffer": 0,
   "byteOffset": 1923560,
   "byteLength": 96,
   "target": 34962
  },
  {
   "buffer": 0,
   "byteOffset": 1923656,
   "byteLength": 96,
   "target": 34962
  },
  {
   "buffer": 0,
   "byteOffset": 1923752,
   "byteLength": 64,
   "target": 34962
  },
  {
   "buffer": 0,
   "byteOffset": 1923816,
   "byteLength": 48,
   "target": 34963
  }
 ],
 "buffers": [
  {
   "uri": "body.bin",
   "byteLength": 1923864
  }
 ]
}